<svg width="20" height="20" viewBox="0 0 20 20" fill="none" xmlns="http://www.w3.org/2000/svg">
<path d="M10 20C4.47689 20 0 15.5231 0 10C0 4.47689 4.47689 0 10 0C15.5231 0 20 4.47689 20 10C20 15.5231 15.5231 20 10 20ZM10 0.973236C5.01217 0.973236 0.973236 5.01217 0.973236 10C0.973236 14.9878 5.01217 19.0268 10 19.0268C14.9878 19.0268 19.0268 14.9878 19.0268 10C19.0268 5.01217 14.9878 0.973236 10 0.973236Z" fill="white"/>
<path d="M10 20C7.00731 20 4.64722 15.5961 4.64722 10C4.64722 4.40389 7.00731 0 10 0C12.9927 0 15.3528 4.40389 15.3528 10C15.3528 15.6204 12.9927 20 10 20ZM10 0.973236C7.63992 0.973236 5.62045 5.10949 5.62045 10C5.62045 14.8905 7.61559 19.0268 10 19.0268C12.3844 19.0268 14.3796 14.8905 14.3796 10C14.3796 5.10949 12.3601 0.973236 10 0.973236Z" fill="white"/>
<path d="M10.4867 0.486572H9.51343V19.5133H10.4867V0.486572Z" fill="white"/>
<path d="M19.5133 9.51343H0.486572V10.4867H19.5133V9.51343Z" fill="white"/>
</svg>
