<svg width="7" height="30" viewBox="0 0 7 30" fill="none" xmlns="http://www.w3.org/2000/svg">
<path d="M3.5 30L6.38675 25L0.613247 25L3.5 30ZM3 -2.18557e-08L3 0.9375L4 0.9375L4 2.18557e-08L3 -2.18557e-08ZM3 2.8125L3 4.6875L4 4.6875L4 2.8125L3 2.8125ZM3 6.5625L3 8.4375L4 8.4375L4 6.5625L3 6.5625ZM3 10.3125L3 12.1875L4 12.1875L4 10.3125L3 10.3125ZM3 14.0625L3 15.9375L4 15.9375L4 14.0625L3 14.0625ZM3 17.8125L3 19.6875L4 19.6875L4 17.8125L3 17.8125ZM3 21.5625L3 23.4375L4 23.4375L4 21.5625L3 21.5625ZM3 25.3125L3 27.1875L4 27.1875L4 25.3125L3 25.3125Z" fill="#4285F4"/>
</svg>
