<svg width="160" height="6" viewBox="0 0 160 6" fill="none" xmlns="http://www.w3.org/2000/svg">
<path d="M160 3L155 0.113249V5.88675L160 3ZM157 2.5H155V3.5L157 3.5V2.5ZM153 2.5H151V3.5H153V2.5ZM149 2.5L147 2.5V3.5L149 3.5V2.5ZM145 2.5L143 2.5V3.5L145 3.5V2.5ZM141 2.5L139 2.5V3.5L141 3.5V2.5ZM137 2.5L135 2.5V3.5L137 3.5V2.5ZM133 2.5H131V3.5H133V2.5ZM129 2.5L127 2.5V3.5L129 3.5V2.5ZM125 2.5H123V3.5H125V2.5ZM121 2.5H119V3.5H121V2.5ZM117 2.5H115V3.5H117V2.5ZM113 2.5L111 2.5V3.5L113 3.5V2.5ZM109 2.5L107 2.5V3.5H109V2.5ZM105 2.5L103 2.5V3.5L105 3.5V2.5ZM101 2.5L99 2.5V3.5L101 3.5V2.5ZM97 2.5L95 2.5V3.5L97 3.5V2.5ZM93 2.5L91 2.5V3.5L93 3.5V2.5ZM89 2.5H87V3.5H89V2.5ZM85 2.5H83V3.5H85V2.5ZM81 2.5H79V3.5H81V2.5ZM77 2.5L75 2.5V3.5L77 3.5V2.5ZM73 2.5H71V3.5H73V2.5ZM69 2.5L67 2.5V3.5L69 3.5V2.5ZM65 2.5L63 2.5V3.5L65 3.5V2.5ZM61 2.5L59 2.5V3.5L61 3.5V2.5ZM57 2.5L55 2.5V3.5L57 3.5V2.5ZM53 2.5H51V3.5H53V2.5ZM49 2.5H47V3.5L49 3.5V2.5ZM45 2.5H43V3.5H45V2.5ZM41 2.5H39V3.5H41V2.5ZM37 2.5H35V3.5H37V2.5ZM33 2.5L31 2.5V3.5L33 3.5V2.5ZM29 2.5L27 2.5V3.5L29 3.5V2.5ZM25 2.5L23 2.5V3.5L25 3.5V2.5ZM21 2.5L19 2.5V3.5L21 3.5V2.5ZM17 2.5L15 2.5V3.5H17V2.5ZM13 2.5L11 2.5V3.5L13 3.5V2.5ZM9 2.5H7V3.5H9V2.5ZM5 2.5H3V3.5H5V2.5ZM1 2.5H0V3.5H1V2.5Z" fill="#4285F4"/>
</svg>
