<svg width="200" height="48" viewBox="0 0 200 48" fill="none" xmlns="http://www.w3.org/2000/svg">
<path d="M20.3633 42.7626C20.3633 39.8849 22.8045 37.5251 25.7816 37.5251C28.7586 37.5251 31.1998 39.8849 31.1998 42.7626C31.1998 45.6403 28.7586 48 25.7816 48C22.8045 48 20.3633 45.6403 20.3633 42.7626Z" fill="#4285F4"/>
<path d="M20.3633 5.23741C20.3633 2.35971 22.8045 0 25.7816 0C28.7586 0 31.1998 2.35971 31.1998 5.23741C31.1998 8.11511 28.7586 10.4748 25.7816 10.4748C22.8045 10.5324 20.3633 8.17266 20.3633 5.23741Z" fill="#4285F4"/>
<path d="M25.8411 34.3597L18.7556 30.0432C17.8625 29.4676 16.7908 29.1223 15.6595 29.1223C12.6229 29.1223 10.2412 31.482 10.2412 34.3597C10.2412 37.295 12.6824 39.5971 15.6595 39.5971C16.7908 39.5971 17.8625 39.2518 18.7556 38.6763L25.8411 34.3597Z" fill="#4285F4"/>
<path d="M25.8408 34.3597L32.9263 38.6763C33.8194 39.2518 34.8911 39.5971 36.0224 39.5971C38.9995 39.5971 41.4407 37.2374 41.4407 34.3597C41.4407 31.482 38.9995 29.1223 36.0224 29.1223C34.8316 29.1223 33.8194 29.4676 32.9263 30.0432L25.8408 34.3597Z" fill="#4285F4"/>
<path d="M25.8411 14.2734L18.7556 9.95687C17.8625 9.38133 16.7908 9.03601 15.6595 9.03601C12.6229 9.03601 10.2412 11.3957 10.2412 14.2734C10.2412 17.2087 12.6824 19.5108 15.6595 19.5108C16.7908 19.5108 17.8625 19.1655 18.7556 18.59L25.8411 14.2734Z" fill="#4285F4"/>
<path d="M25.8408 14.2734L32.9263 18.59C33.8194 19.1655 34.8911 19.5108 36.0224 19.5108C38.9995 19.5108 41.4407 17.1511 41.4407 14.2734C41.4407 11.3957 38.9995 9.03601 36.0224 9.03601C34.8316 9.03601 33.8194 9.38133 32.9263 9.95687L25.8408 14.2734Z" fill="#4285F4"/>
<path d="M15.6595 24.3453L8.57401 20.0288C7.68089 19.4532 6.60914 19.1079 5.47785 19.1079C2.44123 19.1079 0.0595703 21.4676 0.0595703 24.3453C0.0595703 27.2806 2.50077 29.5827 5.47785 29.5827C6.60914 29.5827 7.68089 29.2374 8.57401 28.6619L15.6595 24.3453Z" fill="#4285F4"/>
<path d="M15.6597 24.3453L22.7451 28.6619C23.6382 29.2374 24.71 29.5827 25.8413 29.5827C28.8183 29.5827 31.2595 27.223 31.2595 24.3453C31.2595 21.4676 28.8183 19.1079 25.8413 19.1079C24.6504 19.1079 23.5787 19.4532 22.7451 20.0288L15.6597 24.3453Z" fill="#4285F4"/>
<path d="M36.0225 24.3453L43.1079 28.6619C44.001 29.2374 45.0728 29.5827 46.2041 29.5827C49.1811 29.5827 51.6223 27.223 51.6223 24.3453C51.6223 21.4676 49.1811 19.1079 46.2041 19.1079C45.0132 19.1079 44.001 19.4532 43.1079 20.0288L36.0225 24.3453Z" fill="#4285F4"/>
<path d="M36.0227 24.3453L28.9373 20.0288C28.0442 19.4532 26.9724 19.1079 25.8411 19.1079C22.8641 19.1079 20.4229 21.4676 20.4229 24.3453C20.4229 27.223 22.8641 29.5827 25.8411 29.5827C26.9724 29.5827 28.0442 29.2374 28.9373 28.6619L36.0227 24.3453Z" fill="#4285F4"/>
<path d="M98.0648 13.7554V27.0503C98.0648 29.2949 97.0526 30.2734 94.6709 30.2734C92.8252 30.2734 91.7534 29.0072 91.7534 26.8777V13.7554H86.6924V27.1654C86.7519 29.41 87.2878 31.0216 88.3 32.1726C90.2649 34.3597 93.1824 34.705 94.79 34.705C100.268 34.705 103.185 32 103.185 26.8777V13.7554H98.0648Z" fill="#231F20"/>
<path d="M123.072 32.7482C122.596 32.5756 122.537 32.1151 122.537 29.295C122.537 26.1295 121.882 25.0936 120.691 24.3454C122.179 23.4245 123.072 21.7554 123.072 19.6835C123.072 17.4389 121.703 13.6979 116.523 13.6979H106.341V34.1295H111.283V26.59H114.915C117.416 26.59 117.535 27.2231 117.535 29.813C117.535 31.8849 117.714 32.9784 117.952 33.8993L118.071 34.2446H123.37V32.9209L123.072 32.7482ZM111.283 18.1295H115.749C117.654 18.1295 118.071 19.2806 118.071 20.2015C118.071 21.813 117.356 22.3885 115.451 22.3885H111.283V18.1295Z" fill="#231F20"/>
<path d="M137.779 13.7554H132.42L125.275 34.187H130.575L131.884 30.1583H138.196L139.446 34.187H144.865L137.779 13.7554ZM136.767 25.8993H133.254L135.04 20.259L136.767 25.8993Z" fill="#231F20"/>
<path d="M158.619 26.5899L158.559 26.9928C158.142 29.1223 156.832 30.2734 154.808 30.2734C150.878 30.2734 150.581 25.554 150.581 24.1151C150.581 18.2446 153.855 17.7842 154.808 17.7842C157.726 17.7842 158.261 19.6835 158.559 20.777L158.678 21.1223H163.62L163.561 20.6043C163.322 17.0935 160.464 13.2374 154.808 13.2374C149.152 13.2374 145.52 17.4389 145.52 24C145.52 30.6187 149.092 34.7051 154.748 34.7051C159.452 34.7051 162.668 31.9425 163.561 27.1079L163.68 26.5324H158.619V26.5899Z" fill="#231F20"/>
<path d="M171.777 29.7554V13.7554H166.776V34.2446H181.244V29.7554H171.777Z" fill="#231F20"/>
<path d="M189.342 29.8129V25.7266H198.69V21.2949H189.342V18.187H199.523V13.7554H184.459V34.2446H200V29.8129H189.342Z" fill="#231F20"/>
<path d="M78.5352 26.5899L78.4756 26.9928C78.0588 29.1223 76.7489 30.2734 74.7245 30.2734C70.7948 30.2734 70.4971 25.554 70.4971 24.1151C70.4971 18.2446 73.7718 17.7842 74.7245 17.7842C77.642 17.7842 78.1779 19.6835 78.4756 20.777L78.5947 21.1223H83.5367L83.4771 20.6043C83.239 17.0935 80.381 13.2374 74.7245 13.2374C69.0681 13.2374 65.436 17.4389 65.436 24C65.436 30.6187 69.0085 34.7051 74.665 34.7051C79.3688 34.7051 82.584 31.9425 83.4771 27.1079L83.5962 26.5324H78.5352V26.5899Z" fill="#231F20"/>
</svg>
