<svg width="200" height="48" viewBox="0 0 200 48" fill="none" xmlns="http://www.w3.org/2000/svg">
<path d="M20.3632 42.7626C20.3632 39.8849 22.8044 37.5251 25.7815 37.5251C28.7585 37.5251 31.1997 39.8849 31.1997 42.7626C31.1997 45.6403 28.7585 48 25.7815 48C22.8044 48 20.3632 45.6403 20.3632 42.7626Z" fill="#4285F4"/>
<path d="M20.3632 5.23741C20.3632 2.35971 22.8044 0 25.7815 0C28.7585 0 31.1997 2.35971 31.1997 5.23741C31.1997 8.11511 28.7585 10.4748 25.7815 10.4748C22.8044 10.5324 20.3632 8.17266 20.3632 5.23741Z" fill="#4285F4"/>
<path d="M25.841 34.3597L18.7556 30.0432C17.8625 29.4676 16.7907 29.1223 15.6594 29.1223C12.6228 29.1223 10.2411 31.482 10.2411 34.3597C10.2411 37.295 12.6824 39.5971 15.6594 39.5971C16.7907 39.5971 17.8625 39.2518 18.7556 38.6763L25.841 34.3597Z" fill="#4285F4"/>
<path d="M25.841 34.3597L32.9265 38.6763C33.8196 39.2518 34.8913 39.5971 36.0226 39.5971C38.9997 39.5971 41.4409 37.2374 41.4409 34.3597C41.4409 31.482 38.9997 29.1223 36.0226 29.1223C34.8318 29.1223 33.8196 29.4676 32.9265 30.0432L25.841 34.3597Z" fill="#4285F4"/>
<path d="M25.841 14.2733L18.7556 9.95675C17.8625 9.38121 16.7907 9.03589 15.6594 9.03589C12.6228 9.03589 10.2411 11.3956 10.2411 14.2733C10.2411 17.2086 12.6824 19.5107 15.6594 19.5107C16.7907 19.5107 17.8625 19.1654 18.7556 18.5898L25.841 14.2733Z" fill="#4285F4"/>
<path d="M25.841 14.2733L32.9265 18.5898C33.8196 19.1654 34.8913 19.5107 36.0226 19.5107C38.9997 19.5107 41.4409 17.151 41.4409 14.2733C41.4409 11.3956 38.9997 9.03589 36.0226 9.03589C34.8318 9.03589 33.8196 9.38121 32.9265 9.95675L25.841 14.2733Z" fill="#4285F4"/>
<path d="M15.6594 24.3453L8.57398 20.0288C7.68086 19.4532 6.60911 19.1079 5.47782 19.1079C2.4412 19.1079 0.0595398 21.4676 0.0595398 24.3453C0.0595398 27.2806 2.50074 29.5827 5.47782 29.5827C6.60911 29.5827 7.68086 29.2374 8.57398 28.6619L15.6594 24.3453Z" fill="#4285F4"/>
<path d="M15.6594 24.3453L22.7449 28.6619C23.638 29.2374 24.7097 29.5827 25.841 29.5827C28.8181 29.5827 31.2593 27.223 31.2593 24.3453C31.2593 21.4676 28.8181 19.1079 25.841 19.1079C24.6502 19.1079 23.5784 19.4532 22.7449 20.0288L15.6594 24.3453Z" fill="#4285F4"/>
<path d="M36.0226 24.3453L43.1081 28.6619C44.0012 29.2374 45.073 29.5827 46.2042 29.5827C49.1813 29.5827 51.6225 27.223 51.6225 24.3453C51.6225 21.4676 49.1813 19.1079 46.2042 19.1079C45.0134 19.1079 44.0012 19.4532 43.1081 20.0288L36.0226 24.3453Z" fill="#4285F4"/>
<path d="M36.0226 24.3453L28.9372 20.0288C28.044 19.4532 26.9723 19.1079 25.841 19.1079C22.8639 19.1079 20.4227 21.4676 20.4227 24.3453C20.4227 27.223 22.8639 29.5827 25.841 29.5827C26.9723 29.5827 28.044 29.2374 28.9372 28.6619L36.0226 24.3453Z" fill="#4285F4"/>
<path d="M98.0649 13.7554V27.0503C98.0649 29.2949 97.0527 30.2734 94.671 30.2734C92.8253 30.2734 91.7535 29.0072 91.7535 26.8777V13.7554H86.6925V27.1654C86.752 29.41 87.2879 31.0216 88.3001 32.1726C90.265 34.3597 93.1825 34.705 94.7901 34.705C100.268 34.705 103.185 32 103.185 26.8777V13.7554H98.0649Z" fill="white"/>
<path d="M123.072 32.7481C122.596 32.5754 122.536 32.115 122.536 29.2949C122.536 26.1294 121.882 25.0934 120.691 24.3452C122.179 23.4244 123.072 21.7553 123.072 19.6834C123.072 17.4388 121.703 13.6978 116.523 13.6978H106.341V34.1294H111.283V26.5898H114.915C117.416 26.5898 117.535 27.2229 117.535 29.8129C117.535 31.8848 117.714 32.9783 117.952 33.8992L118.071 34.2445H123.37V32.9208L123.072 32.7481ZM111.283 18.1294H115.749C117.654 18.1294 118.071 19.2805 118.071 20.2013C118.071 21.8129 117.356 22.3884 115.451 22.3884H111.283V18.1294Z" fill="white"/>
<path d="M137.779 13.7554H132.42L125.275 34.187H130.575L131.884 30.1583H138.196L139.446 34.187H144.865L137.779 13.7554ZM136.767 25.8993H133.254L135.04 20.259L136.767 25.8993Z" fill="white"/>
<path d="M158.619 26.5898L158.559 26.9927C158.142 29.1222 156.832 30.2733 154.808 30.2733C150.878 30.2733 150.581 25.5539 150.581 24.115C150.581 18.2445 153.855 17.7841 154.808 17.7841C157.726 17.7841 158.261 19.6833 158.559 20.7769L158.678 21.1222H163.62L163.561 20.6042C163.322 17.0934 160.464 13.2373 154.808 13.2373C149.152 13.2373 145.52 17.4387 145.52 23.9999C145.52 30.6186 149.092 34.7049 154.748 34.7049C159.452 34.7049 162.667 31.9423 163.561 27.1078L163.68 26.5323H158.619V26.5898Z" fill="white"/>
<path d="M171.777 29.7554V13.7554H166.776V34.2446H181.244V29.7554H171.777Z" fill="white"/>
<path d="M189.342 29.8129V25.7266H198.69V21.2949H189.342V18.187H199.524V13.7554H184.46V34.2446H200V29.8129H189.342Z" fill="white"/>
<path d="M78.5353 26.5898L78.4758 26.9927C78.059 29.1222 76.749 30.2733 74.7246 30.2733C70.7949 30.2733 70.4972 25.5539 70.4972 24.115C70.4972 18.2445 73.772 17.7841 74.7246 17.7841C77.6422 17.7841 78.178 19.6833 78.4758 20.7769L78.5948 21.1222H83.5368L83.4772 20.6042C83.2391 17.0934 80.3811 13.2373 74.7246 13.2373C69.0682 13.2373 65.4362 17.4387 65.4362 23.9999C65.4362 30.6186 69.0086 34.7049 74.6651 34.7049C79.3689 34.7049 82.5841 31.9423 83.4772 27.1078L83.5963 26.5323H78.5353V26.5898Z" fill="white"/>
</svg>
