<svg width="32" height="34" viewBox="0 0 32 34" fill="none" xmlns="http://www.w3.org/2000/svg">
<path d="M28.4802 5.13281H3.51796C2.19391 5.13281 1.10352 6.22421 1.10352 7.54948V23.8036C1.10352 25.1288 2.19391 26.2202 3.51796 26.2202H17.3426L23.885 32.7296C24.4691 33.3143 25.4427 32.8856 25.4427 32.067V26.2202H28.5191C29.8432 26.2202 30.9336 25.1288 30.9336 23.8036V7.54948C30.8946 6.22421 29.8432 5.13281 28.4802 5.13281Z" stroke="white" stroke-miterlimit="10" stroke-linejoin="round"/>
<path d="M6.36143 1H25.638C26.6895 1 27.5073 1.81855 27.5073 2.87097V15.4221C27.5073 16.4745 26.6895 17.293 25.638 17.293H14.9678L9.94416 22.3213C9.51579 22.75 8.73693 22.4382 8.73693 21.8146V17.293H6.36143C5.30998 17.293 4.49219 16.4745 4.49219 15.4221V2.87097C4.49219 1.81855 5.34893 1 6.36143 1Z" fill="#4285F4" stroke="white" stroke-miterlimit="10" stroke-linejoin="round"/>
<path d="M8.85156 4.9375H15.8612" stroke="white" stroke-miterlimit="10" stroke-linejoin="round"/>
<path d="M8.85156 7.66602H23.6498" stroke="white" stroke-miterlimit="10" stroke-linejoin="round"/>
<path d="M8.85156 10.3945H23.6498" stroke="white" stroke-miterlimit="10" stroke-linejoin="round"/>
<path d="M8.85156 13.123H23.6498" stroke="white" stroke-miterlimit="10" stroke-linejoin="round"/>
</svg>
