<svg width="366" height="350" viewBox="0 0 366 350" fill="none" xmlns="http://www.w3.org/2000/svg">
<path d="M147.7 197L61.0996 247C65.4996 254.6 70.4996 261.7 76.0996 268.4L152.7 204.1C150.8 201.9 149.2 199.5 147.7 197Z" fill="#5999CE"/>
<path d="M141.8 180.7C141.3 177.9 141 175 141 172H41C41 180.9 41.8 189.6 43.3 198.1C46.4 215.7 52.5 232.2 61.1 247.1L147.7 197.1C144.8 192 142.8 186.5 141.8 180.7Z" fill="#8DB9DE"/>
<path d="M144.799 153L52.3992 114.4C48.1992 124.4 45.0992 135 43.1992 145.9L141.699 163.3C142.399 159.7 143.399 156.3 144.799 153Z" fill="#D6E5F3"/>
<path d="M107.1 47.5996C88.3 60.3996 72.5 77.2996 61.1 96.9996C57.9 102.6 55 108.4 52.5 114.4L144.8 152.9C145.6 150.8 146.6 148.8 147.7 146.9C151.5 140.3 156.8 134.7 163 130.4L107.1 47.5996Z" fill="#F4F4F4"/>
<path d="M191 122V22C159.9 22 131.1 31.4 107.1 47.6L163 130.5C171 125.2 180.6 122 191 122Z" fill="#E5E5E5"/>
<path d="M141.8 163.3L43.3 145.9C41.8 154.4 41 163.1 41 172H141C141 169 141.3 166.1 141.8 163.3Z" fill="#B7D2EA"/>
<g filter="url(#filter0_d_58_2)">
<path d="M338.7 145.9C335.6 128.3 329.5 111.8 320.9 96.9C316.5 89.3 311.5 82.2 305.9 75.5C278.4 42.8 237.1 22 191 22V122C206.4 122 220.1 128.9 229.3 139.9C231.2 142.1 232.8 144.5 234.3 147C237.2 152 239.2 157.5 240.2 163.3C240.7 166.1 241 169 241 172C241 175 240.7 177.9 240.2 180.7C239.5 184.5 238.5 188.1 237 191.5C236.2 193.4 235.3 195.2 234.3 197C230.5 203.6 225.2 209.2 219 213.5C211 218.9 201.4 222 191 222C175.6 222 161.9 215.1 152.7 204.1L76.0996 268.4C103.6 301.2 144.9 322 191 322C222.1 322 250.9 312.6 274.9 296.4C293.7 283.7 309.5 266.8 320.9 247C324.1 241.5 326.9 235.9 329.3 230C333.6 219.9 336.7 209.2 338.7 198C340.2 189.5 341 180.8 341 171.9C341 163.1 340.2 154.4 338.7 145.9Z" fill="#4285F4"/>
</g>
<path d="M268.245 181.234C272.077 181.246 274.678 178.773 274.666 175.328C274.678 172.129 272.405 169.844 269.346 169.844C267.471 169.844 265.795 170.723 265.01 172.234H264.846C264.87 168.895 266.077 166.82 268.385 166.82C269.756 166.82 270.729 167.559 271.01 168.742H274.479C274.139 165.953 271.795 163.797 268.385 163.797C264.143 163.797 261.413 167.184 261.401 172.914C261.389 179.125 264.741 181.223 268.245 181.234ZM265.198 175.422C265.221 173.77 266.534 172.41 268.268 172.398C269.991 172.41 271.245 173.723 271.245 175.422C271.245 177.133 269.967 178.457 268.221 178.445C266.487 178.457 265.221 177.086 265.198 175.422ZM282.738 181.234C286.559 181.234 289.16 178.785 289.16 175.352C289.16 172.094 286.84 169.762 283.723 169.773C282.234 169.762 280.945 170.371 280.324 171.203H280.184L280.652 166.914H288.199V164.031H277.746L276.832 173.805H280.02C280.523 172.855 281.414 172.375 282.691 172.375C284.473 172.387 285.75 173.641 285.738 175.445C285.75 177.215 284.496 178.457 282.738 178.445C281.262 178.457 280.055 177.543 279.973 176.219H276.551C276.609 179.148 279.199 181.234 282.738 181.234ZM295.404 172.516C297.912 172.516 299.306 170.688 299.318 167.992C299.306 165.309 297.947 163.445 295.404 163.445C292.931 163.445 291.49 165.309 291.49 167.992C291.49 170.664 292.861 172.516 295.404 172.516ZM293.88 167.992C293.892 166.551 294.408 165.543 295.404 165.531C296.459 165.531 296.916 166.527 296.927 167.992C296.916 169.457 296.412 170.418 295.404 170.43C294.42 170.418 293.892 169.457 293.88 167.992ZM293.927 181H296.552L308.224 164.031H305.599L293.927 181ZM302.951 177.039C302.951 179.711 304.322 181.562 306.841 181.562C309.373 181.562 310.767 179.734 310.779 177.039C310.767 174.355 309.408 172.504 306.841 172.492C304.392 172.504 302.951 174.355 302.951 177.039ZM305.341 177.039C305.353 175.598 305.857 174.59 306.841 174.602C307.908 174.578 308.377 175.574 308.388 177.039C308.377 178.504 307.873 179.477 306.841 179.477C305.88 179.477 305.353 178.504 305.341 177.039Z" fill="white"/>
<path d="M29.4891 276.156C32.0437 276.156 33.8797 274.766 33.8641 272.828C33.8797 271.414 32.9656 270.406 31.3016 270.203V270.109C32.5672 269.883 33.45 268.984 33.4422 267.719C33.45 265.93 31.8797 264.531 29.5203 264.531C27.2 264.531 25.45 265.883 25.4109 267.828H27.6609C27.7 266.961 28.5203 266.398 29.5203 266.406C30.5203 266.398 31.1844 266.992 31.1766 267.859C31.1844 268.75 30.4031 269.359 29.2859 269.359H28.2391V271.094H29.2859C30.6141 271.102 31.4344 271.75 31.4266 272.672C31.4344 273.586 30.6297 274.211 29.5047 274.219C28.4109 274.211 27.5906 273.656 27.5516 272.812H25.1766C25.2234 274.789 27.0047 276.156 29.4891 276.156ZM38.0891 270.344C39.7609 270.344 40.6906 269.125 40.6984 267.328C40.6906 265.539 39.7844 264.297 38.0891 264.297C36.4406 264.297 35.4797 265.539 35.4797 267.328C35.4797 269.109 36.3938 270.344 38.0891 270.344ZM37.0734 267.328C37.0813 266.367 37.425 265.695 38.0891 265.688C38.7922 265.688 39.0969 266.352 39.1047 267.328C39.0969 268.305 38.7609 268.945 38.0891 268.953C37.4328 268.945 37.0813 268.305 37.0734 267.328ZM37.1047 276H38.8547L46.6359 264.688H44.8859L37.1047 276ZM43.1203 273.359C43.1203 275.141 44.0344 276.375 45.7141 276.375C47.4016 276.375 48.3313 275.156 48.3391 273.359C48.3313 271.57 47.425 270.336 45.7141 270.328C44.0813 270.336 43.1203 271.57 43.1203 273.359ZM44.7141 273.359C44.7219 272.398 45.0578 271.727 45.7141 271.734C46.425 271.719 46.7375 272.383 46.7453 273.359C46.7375 274.336 46.4016 274.984 45.7141 274.984C45.0734 274.984 44.7219 274.336 44.7141 273.359Z" fill="#333333"/>
<path d="M76.5 250L54 263" stroke="#888888" stroke-dasharray="2 2"/>
<path d="M77.7469 204H80.1844L84.95 194.641V192.688H76.9656V194.609H82.5125V194.688L77.7469 204ZM89.0813 198.344C90.7531 198.344 91.6828 197.125 91.6906 195.328C91.6828 193.539 90.7766 192.297 89.0813 192.297C87.4328 192.297 86.4719 193.539 86.4719 195.328C86.4719 197.109 87.3859 198.344 89.0813 198.344ZM88.0656 195.328C88.0734 194.367 88.4172 193.695 89.0813 193.688C89.7844 193.688 90.0891 194.352 90.0969 195.328C90.0891 196.305 89.7531 196.945 89.0813 196.953C88.425 196.945 88.0734 196.305 88.0656 195.328ZM88.0969 204H89.8469L97.6281 192.688H95.8781L88.0969 204ZM94.1125 201.359C94.1125 203.141 95.0266 204.375 96.7063 204.375C98.3938 204.375 99.3234 203.156 99.3313 201.359C99.3234 199.57 98.4172 198.336 96.7063 198.328C95.0734 198.336 94.1125 199.57 94.1125 201.359ZM95.7063 201.359C95.7141 200.398 96.05 199.727 96.7063 199.734C97.4172 199.719 97.7297 200.383 97.7375 201.359C97.7297 202.336 97.3938 202.984 96.7063 202.984C96.0656 202.984 95.7141 202.336 95.7063 201.359Z" fill="#333333"/>
<path d="M5.48906 167.156C8.04375 167.156 9.87969 165.766 9.86406 163.828C9.87969 162.414 8.96562 161.406 7.30156 161.203V161.109C8.56719 160.883 9.45 159.984 9.44219 158.719C9.45 156.93 7.87969 155.531 5.52031 155.531C3.2 155.531 1.45 156.883 1.41094 158.828H3.66094C3.7 157.961 4.52031 157.398 5.52031 157.406C6.52031 157.398 7.18437 157.992 7.17656 158.859C7.18437 159.75 6.40312 160.359 5.28594 160.359H4.23906V162.094H5.28594C6.61406 162.102 7.43437 162.75 7.42656 163.672C7.43437 164.586 6.62969 165.211 5.50469 165.219C4.41094 165.211 3.59062 164.656 3.55156 163.812H1.17656C1.22344 165.789 3.00469 167.156 5.48906 167.156ZM14.0891 161.344C15.7609 161.344 16.6906 160.125 16.6984 158.328C16.6906 156.539 15.7844 155.297 14.0891 155.297C12.4406 155.297 11.4797 156.539 11.4797 158.328C11.4797 160.109 12.3938 161.344 14.0891 161.344ZM13.0734 158.328C13.0813 157.367 13.425 156.695 14.0891 156.688C14.7922 156.688 15.0969 157.352 15.1047 158.328C15.0969 159.305 14.7609 159.945 14.0891 159.953C13.4328 159.945 13.0813 159.305 13.0734 158.328ZM13.1047 167H14.8547L22.6359 155.688H20.8859L13.1047 167ZM19.1203 164.359C19.1203 166.141 20.0344 167.375 21.7141 167.375C23.4016 167.375 24.3313 166.156 24.3391 164.359C24.3313 162.57 23.425 161.336 21.7141 161.328C20.0813 161.336 19.1203 162.57 19.1203 164.359ZM20.7141 164.359C20.7219 163.398 21.0578 162.727 21.7141 162.734C22.425 162.719 22.7375 163.383 22.7453 164.359C22.7375 165.336 22.4016 165.984 21.7141 165.984C21.0734 165.984 20.7219 165.336 20.7141 164.359Z" fill="#333333"/>
<path d="M33.5 161.5H55" stroke="#888888" stroke-dasharray="2 2"/>
<path d="M35 126L58 133" stroke="#888888" stroke-dasharray="2 2"/>
<path d="M5.48906 131.156C8.04375 131.156 9.87969 129.766 9.86406 127.828C9.87969 126.414 8.96562 125.406 7.30156 125.203V125.109C8.56719 124.883 9.45 123.984 9.44219 122.719C9.45 120.93 7.87969 119.531 5.52031 119.531C3.2 119.531 1.45 120.883 1.41094 122.828H3.66094C3.7 121.961 4.52031 121.398 5.52031 121.406C6.52031 121.398 7.18437 121.992 7.17656 122.859C7.18437 123.75 6.40312 124.359 5.28594 124.359H4.23906V126.094H5.28594C6.61406 126.102 7.43437 126.75 7.42656 127.672C7.43437 128.586 6.62969 129.211 5.50469 129.219C4.41094 129.211 3.59062 128.656 3.55156 127.812H1.17656C1.22344 129.789 3.00469 131.156 5.48906 131.156ZM14.0891 125.344C15.7609 125.344 16.6906 124.125 16.6984 122.328C16.6906 120.539 15.7844 119.297 14.0891 119.297C12.4406 119.297 11.4797 120.539 11.4797 122.328C11.4797 124.109 12.3938 125.344 14.0891 125.344ZM13.0734 122.328C13.0813 121.367 13.425 120.695 14.0891 120.688C14.7922 120.688 15.0969 121.352 15.1047 122.328C15.0969 123.305 14.7609 123.945 14.0891 123.953C13.4328 123.945 13.0813 123.305 13.0734 122.328ZM13.1047 131H14.8547L22.6359 119.688H20.8859L13.1047 131ZM19.1203 128.359C19.1203 130.141 20.0344 131.375 21.7141 131.375C23.4016 131.375 24.3313 130.156 24.3391 128.359C24.3313 126.57 23.425 125.336 21.7141 125.328C20.0813 125.336 19.1203 126.57 19.1203 128.359ZM20.7141 128.359C20.7219 127.398 21.0578 126.727 21.7141 126.734C22.425 126.719 22.7375 127.383 22.7453 128.359C22.7375 129.336 22.4016 129.984 21.7141 129.984C21.0734 129.984 20.7219 129.336 20.7141 128.359Z" fill="#333333"/>
<path d="M98.7469 111H101.184L105.95 101.641V99.6875H97.9656V101.609H103.512V101.688L98.7469 111ZM110.081 105.344C111.753 105.344 112.683 104.125 112.691 102.328C112.683 100.539 111.777 99.2969 110.081 99.2969C108.433 99.2969 107.472 100.539 107.472 102.328C107.472 104.109 108.386 105.344 110.081 105.344ZM109.066 102.328C109.073 101.367 109.417 100.695 110.081 100.688C110.784 100.688 111.089 101.352 111.097 102.328C111.089 103.305 110.753 103.945 110.081 103.953C109.425 103.945 109.073 103.305 109.066 102.328ZM109.097 111H110.847L118.628 99.6875H116.878L109.097 111ZM115.113 108.359C115.113 110.141 116.027 111.375 117.706 111.375C119.394 111.375 120.323 110.156 120.331 108.359C120.323 106.57 119.417 105.336 117.706 105.328C116.073 105.336 115.113 106.57 115.113 108.359ZM116.706 108.359C116.714 107.398 117.05 106.727 117.706 106.734C118.417 106.719 118.73 107.383 118.738 108.359C118.73 109.336 118.394 109.984 117.706 109.984C117.066 109.984 116.714 109.336 116.706 108.359Z" fill="#333333"/>
<path d="M155.395 69.5312C152.841 69.5234 151.114 71.1797 151.114 73.4531C151.13 75.5625 152.63 77.0938 154.661 77.0938C155.919 77.0938 157.036 76.5 157.567 75.5H157.661C157.653 77.7578 156.841 79.1406 155.302 79.1406C154.395 79.1406 153.747 78.6484 153.552 77.8125H151.239C151.466 79.7266 153.028 81.1562 155.302 81.1562C158.145 81.1562 159.966 78.8906 159.958 75.0469C159.958 70.9375 157.739 69.5391 155.395 69.5312ZM153.411 73.3906C153.395 72.2656 154.255 71.3828 155.411 71.375C156.567 71.3828 157.411 72.2969 157.427 73.375C157.427 74.4609 156.544 75.375 155.395 75.375C154.231 75.375 153.411 74.5078 153.411 73.3906ZM164.12 75.3438C165.792 75.3438 166.722 74.125 166.73 72.3281C166.722 70.5391 165.816 69.2969 164.12 69.2969C162.472 69.2969 161.511 70.5391 161.511 72.3281C161.511 74.1094 162.425 75.3438 164.12 75.3438ZM163.105 72.3281C163.113 71.3672 163.456 70.6953 164.12 70.6875C164.823 70.6875 165.128 71.3516 165.136 72.3281C165.128 73.3047 164.792 73.9453 164.12 73.9531C163.464 73.9453 163.113 73.3047 163.105 72.3281ZM163.136 81H164.886L172.667 69.6875H170.917L163.136 81ZM169.152 78.3594C169.152 80.1406 170.066 81.375 171.745 81.375C173.433 81.375 174.363 80.1562 174.37 78.3594C174.363 76.5703 173.456 75.3359 171.745 75.3281C170.113 75.3359 169.152 76.5703 169.152 78.3594ZM170.745 78.3594C170.753 77.3984 171.089 76.7266 171.745 76.7344C172.456 76.7188 172.769 77.3828 172.777 78.3594C172.769 79.3359 172.433 79.9844 171.745 79.9844C171.105 79.9844 170.753 79.3359 170.745 78.3594Z" fill="#333333"/>
<defs>
<filter id="filter0_d_58_2" x="51.0996" y="0" width="314.9" height="350" filterUnits="userSpaceOnUse" color-interpolation-filters="sRGB">
<feFlood flood-opacity="0" result="BackgroundImageFix"/>
<feColorMatrix in="SourceAlpha" type="matrix" values="0 0 0 0 0 0 0 0 0 0 0 0 0 0 0 0 0 0 127 0" result="hardAlpha"/>
<feOffset dy="3"/>
<feGaussianBlur stdDeviation="12.5"/>
<feComposite in2="hardAlpha" operator="out"/>
<feColorMatrix type="matrix" values="0 0 0 0 0.258824 0 0 0 0 0.521569 0 0 0 0 0.956863 0 0 0 0.5 0"/>
<feBlend mode="normal" in2="BackgroundImageFix" result="effect1_dropShadow_58_2"/>
<feBlend mode="normal" in="SourceGraphic" in2="effect1_dropShadow_58_2" result="shape"/>
</filter>
</defs>
</svg>
