<svg width="367" height="354" viewBox="0 0 367 354" fill="none" xmlns="http://www.w3.org/2000/svg">
<path d="M142.899 189.7L49.1992 224.8C52.1992 232.9 55.7992 240.6 60.0992 248L146.699 198C145.199 195.4 143.899 192.6 142.899 189.7Z" fill="#5999CE"/>
<path d="M143.799 154L51.3992 115.4C47.1992 125.4 44.0992 136 42.1992 146.9L140.699 164.3C141.399 160.7 142.399 157.3 143.799 154Z" fill="#D6E5F3"/>
<path d="M146.7 148C150.5 141.4 155.8 135.8 162 131.5L106.1 48.5996C87.3 61.3996 71.5 78.2996 60.1 97.9996C56.9 103.6 54 109.4 51.5 115.4L143.8 153.9C144.6 151.9 145.6 149.9 146.7 148Z" fill="#F4F4F4"/>
<path d="M190 123V23C158.9 23 130.1 32.4 106.1 48.6L162 131.5C170 126.2 179.6 123 190 123Z" fill="#E5E5E5"/>
<path d="M140.8 164.3L42.2996 146.9C41.0996 153.9 40.2996 161 40.0996 168.2H140.3C140.4 166.9 140.5 165.6 140.8 164.3Z" fill="#B7D2EA"/>
<path d="M140.8 181.7C140.3 178.9 140 176 140 173C140 171.4 140.1 169.8 140.2 168.3H40.1C40.1 169.9 40 171.4 40 173C40 181.9 40.8 190.6 42.3 199.1C43.9 208 46.2 216.6 49.2 224.9L142.9 189.8C142 187.1 141.2 184.4 140.8 181.7Z" fill="#8DB9DE"/>
<g filter="url(#filter0_d_58_3)">
<path d="M339.9 168.3C339.7 161.1 338.9 153.9 337.7 147C336 137.5 333.5 128.3 330.1 119.5C327.3 112.1 323.8 104.9 319.9 98.1C315.5 90.5 310.5 83.4 304.9 76.7C277.4 43.8 236.1 23 190 23V123C205.4 123 219.1 129.9 228.3 140.9C230.2 143.1 231.8 145.5 233.3 148C234.5 150.1 235.6 152.3 236.5 154.6C237.7 157.7 238.7 161 239.3 164.4C239.5 165.7 239.7 167 239.8 168.4C240 170 240 171.5 240 173.1C240 176.1 239.7 179 239.2 181.8C238.5 185.6 237.5 189.2 236 192.6C235.2 194.5 234.3 196.3 233.3 198.1C229.5 204.7 224.2 210.3 218 214.6C210 220 200.4 223.1 190 223.1C174.6 223.1 160.9 216.2 151.7 205.2C149.8 203 148.2 200.6 146.7 198.1L60.0996 248.1C64.4996 255.7 69.4996 262.8 75.0996 269.5C102.6 302.2 143.9 323 190 323C221.1 323 249.9 313.6 273.9 297.4C292.7 284.7 308.5 267.8 319.9 248C323.1 242.5 325.9 236.9 328.3 231C332.6 220.9 335.7 210.2 337.7 199C339.2 190.5 340 181.8 340 172.9C340 171.4 340 169.8 339.9 168.3Z" fill="#4285F4"/>
</g>
<path d="M14.5516 253.156C17.1062 253.156 18.9422 251.766 18.9266 249.828C18.9422 248.414 18.0281 247.406 16.3641 247.203V247.109C17.6297 246.883 18.5125 245.984 18.5047 244.719C18.5125 242.93 16.9422 241.531 14.5828 241.531C12.2625 241.531 10.5125 242.883 10.4734 244.828H12.7234C12.7625 243.961 13.5828 243.398 14.5828 243.406C15.5828 243.398 16.2469 243.992 16.2391 244.859C16.2469 245.75 15.4656 246.359 14.3484 246.359H13.3016V248.094H14.3484C15.6766 248.102 16.4969 248.75 16.4891 249.672C16.4969 250.586 15.6922 251.211 14.5672 251.219C13.4734 251.211 12.6531 250.656 12.6141 249.812H10.2391C10.2859 251.789 12.0672 253.156 14.5516 253.156ZM26.3391 250.281V250.875C26.3469 252.227 27.2141 253.383 28.8234 253.391C30.4172 253.383 31.3 252.227 31.3078 250.875V250.281C31.3 248.922 30.4406 247.773 28.8234 247.781C27.2375 247.773 26.3469 248.93 26.3391 250.281ZM20.5422 244.406C20.5422 245.75 21.4094 246.898 23.0266 246.891C24.6203 246.898 25.5031 245.766 25.4953 244.406V243.812C25.5031 242.445 24.6438 241.297 23.0266 241.297C21.4484 241.297 20.5422 242.445 20.5422 243.812V244.406ZM21.2609 253H22.6984L30.4797 241.688H29.0422L21.2609 253ZM22.1359 244.406V243.812C22.1438 243.273 22.3547 242.695 23.0266 242.703C23.7219 242.695 23.9016 243.266 23.9016 243.812V244.406C23.9016 244.945 23.6984 245.5 23.0266 245.5C22.3625 245.5 22.1438 244.945 22.1359 244.406ZM27.9328 250.875V250.281C27.9328 249.742 28.1594 249.172 28.8234 249.172C29.5188 249.172 29.7063 249.742 29.6984 250.281V250.875C29.7063 251.422 29.4953 251.977 28.8234 251.969C28.1438 251.977 27.9328 251.406 27.9328 250.875Z" fill="#333333"/>
<path d="M62 232L39 243" stroke="#888888" stroke-dasharray="2 2"/>
<path d="M1.09062 166H9.18437V164.062H4.35625V164L6.075 162.328C8.40312 160.219 9.02812 159.164 9.02812 157.875C9.02812 155.914 7.41875 154.531 4.99687 154.531C2.61406 154.531 0.973437 155.945 0.98125 158.156H3.21562C3.20781 157.07 3.90312 156.398 4.96562 156.406C6.00469 156.398 6.7625 157.023 6.7625 158.031C6.7625 158.93 6.19219 159.555 5.1375 160.562L1.075 164.297L1.09062 166ZM16.6125 163.281V163.875C16.6203 165.227 17.4875 166.383 19.0969 166.391C20.6906 166.383 21.5734 165.227 21.5813 163.875V163.281C21.5734 161.922 20.7141 160.773 19.0969 160.781C17.5109 160.773 16.6203 161.93 16.6125 163.281ZM10.8156 157.406C10.8156 158.75 11.6828 159.898 13.3 159.891C14.8938 159.898 15.7766 158.766 15.7688 157.406V156.812C15.7766 155.445 14.9172 154.297 13.3 154.297C11.7219 154.297 10.8156 155.445 10.8156 156.812V157.406ZM11.5344 166H12.9719L20.7531 154.688H19.3156L11.5344 166ZM12.4094 157.406V156.812C12.4172 156.273 12.6281 155.695 13.3 155.703C13.9953 155.695 14.175 156.266 14.175 156.812V157.406C14.175 157.945 13.9719 158.5 13.3 158.5C12.6359 158.5 12.4172 157.945 12.4094 157.406ZM18.2063 163.875V163.281C18.2063 162.742 18.4328 162.172 19.0969 162.172C19.7922 162.172 19.9797 162.742 19.9719 163.281V163.875C19.9797 164.422 19.7688 164.977 19.0969 164.969C18.4172 164.977 18.2063 164.406 18.2063 163.875Z" fill="#333333"/>
<path d="M5.55156 130.156C8.10625 130.156 9.94219 128.766 9.92656 126.828C9.94219 125.414 9.02812 124.406 7.36406 124.203V124.109C8.62969 123.883 9.5125 122.984 9.50469 121.719C9.5125 119.93 7.94219 118.531 5.58281 118.531C3.2625 118.531 1.5125 119.883 1.47344 121.828H3.72344C3.7625 120.961 4.58281 120.398 5.58281 120.406C6.58281 120.398 7.24687 120.992 7.23906 121.859C7.24687 122.75 6.46562 123.359 5.34844 123.359H4.30156V125.094H5.34844C6.67656 125.102 7.49687 125.75 7.48906 126.672C7.49687 127.586 6.69219 128.211 5.56719 128.219C4.47344 128.211 3.65312 127.656 3.61406 126.812H1.23906C1.28594 128.789 3.06719 130.156 5.55156 130.156ZM17.3391 127.281V127.875C17.3469 129.227 18.2141 130.383 19.8234 130.391C21.4172 130.383 22.3 129.227 22.3078 127.875V127.281C22.3 125.922 21.4406 124.773 19.8234 124.781C18.2375 124.773 17.3469 125.93 17.3391 127.281ZM11.5422 121.406C11.5422 122.75 12.4094 123.898 14.0266 123.891C15.6203 123.898 16.5031 122.766 16.4953 121.406V120.812C16.5031 119.445 15.6438 118.297 14.0266 118.297C12.4484 118.297 11.5422 119.445 11.5422 120.812V121.406ZM12.2609 130H13.6984L21.4797 118.688H20.0422L12.2609 130ZM13.1359 121.406V120.812C13.1438 120.273 13.3547 119.695 14.0266 119.703C14.7219 119.695 14.9016 120.266 14.9016 120.812V121.406C14.9016 121.945 14.6984 122.5 14.0266 122.5C13.3625 122.5 13.1438 121.945 13.1359 121.406ZM18.9328 127.875V127.281C18.9328 126.742 19.1594 126.172 19.8234 126.172C20.5188 126.172 20.7063 126.742 20.6984 127.281V127.875C20.7063 128.422 20.4953 128.977 19.8234 128.969C19.1438 128.977 18.9328 128.406 18.9328 127.875Z" fill="#333333"/>
<path d="M264.03 182H267.686L274.834 167.961V165.031H262.858V167.914H271.178V168.031L264.03 182ZM282.789 182.234C287.031 182.234 289.609 179.094 289.609 173.516C289.609 167.973 287.02 164.797 282.789 164.797C278.559 164.797 275.969 167.973 275.969 173.516C275.969 179.07 278.535 182.234 282.789 182.234ZM279.578 173.516C279.578 169.637 280.832 167.691 282.789 167.68C284.746 167.691 286.012 169.637 286 173.516C286.012 177.43 284.758 179.328 282.789 179.328C280.82 179.328 279.555 177.43 279.578 173.516ZM300.681 177.922V178.812C300.693 180.84 301.994 182.574 304.408 182.586C306.798 182.574 308.123 180.84 308.134 178.812V177.922C308.123 175.883 306.834 174.16 304.408 174.172C302.029 174.16 300.693 175.895 300.681 177.922ZM291.986 169.109C291.986 171.125 293.287 172.848 295.712 172.836C298.103 172.848 299.427 171.148 299.416 169.109V168.219C299.427 166.168 298.138 164.445 295.712 164.445C293.345 164.445 291.986 166.168 291.986 168.219V169.109ZM293.064 182H295.22L306.892 165.031H304.736L293.064 182ZM294.377 169.109V168.219C294.388 167.41 294.705 166.543 295.712 166.555C296.755 166.543 297.025 167.398 297.025 168.219V169.109C297.025 169.918 296.72 170.75 295.712 170.75C294.716 170.75 294.388 169.918 294.377 169.109ZM303.072 178.812V177.922C303.072 177.113 303.412 176.258 304.408 176.258C305.451 176.258 305.732 177.113 305.72 177.922V178.812C305.732 179.633 305.416 180.465 304.408 180.453C303.388 180.465 303.072 179.609 303.072 178.812Z" fill="white"/>
<path d="M76.8094 196H79.2469L84.0125 186.641V184.688H76.0281V186.609H81.575V186.688L76.8094 196ZM91.3313 193.281V193.875C91.3391 195.227 92.2063 196.383 93.8156 196.391C95.4094 196.383 96.2922 195.227 96.3 193.875V193.281C96.2922 191.922 95.4328 190.773 93.8156 190.781C92.2297 190.773 91.3391 191.93 91.3313 193.281ZM85.5344 187.406C85.5344 188.75 86.4016 189.898 88.0188 189.891C89.6125 189.898 90.4953 188.766 90.4875 187.406V186.812C90.4953 185.445 89.6359 184.297 88.0188 184.297C86.4406 184.297 85.5344 185.445 85.5344 186.812V187.406ZM86.2531 196H87.6906L95.4719 184.688H94.0344L86.2531 196ZM87.1281 187.406V186.812C87.1359 186.273 87.3469 185.695 88.0188 185.703C88.7141 185.695 88.8938 186.266 88.8938 186.812V187.406C88.8938 187.945 88.6906 188.5 88.0188 188.5C87.3547 188.5 87.1359 187.945 87.1281 187.406ZM92.925 193.875V193.281C92.925 192.742 93.1516 192.172 93.8156 192.172C94.5109 192.172 94.6984 192.742 94.6906 193.281V193.875C94.6984 194.422 94.4875 194.977 93.8156 194.969C93.1359 194.977 92.925 194.406 92.925 193.875Z" fill="#333333"/>
<path d="M99.8094 112H102.247L107.012 102.641V100.688H99.0281V102.609H104.575V102.688L99.8094 112ZM114.331 109.281V109.875C114.339 111.227 115.206 112.383 116.816 112.391C118.409 112.383 119.292 111.227 119.3 109.875V109.281C119.292 107.922 118.433 106.773 116.816 106.781C115.23 106.773 114.339 107.93 114.331 109.281ZM108.534 103.406C108.534 104.75 109.402 105.898 111.019 105.891C112.613 105.898 113.495 104.766 113.488 103.406V102.812C113.495 101.445 112.636 100.297 111.019 100.297C109.441 100.297 108.534 101.445 108.534 102.812V103.406ZM109.253 112H110.691L118.472 100.688H117.034L109.253 112ZM110.128 103.406V102.812C110.136 102.273 110.347 101.695 111.019 101.703C111.714 101.695 111.894 102.266 111.894 102.812V103.406C111.894 103.945 111.691 104.5 111.019 104.5C110.355 104.5 110.136 103.945 110.128 103.406ZM115.925 109.875V109.281C115.925 108.742 116.152 108.172 116.816 108.172C117.511 108.172 117.698 108.742 117.691 109.281V109.875C117.698 110.422 117.488 110.977 116.816 110.969C116.136 110.977 115.925 110.406 115.925 109.875Z" fill="#333333"/>
<path d="M156.458 70.5312C153.903 70.5234 152.177 72.1797 152.177 74.4531C152.192 76.5625 153.692 78.0938 155.723 78.0938C156.981 78.0938 158.098 77.5 158.63 76.5H158.723C158.716 78.7578 157.903 80.1406 156.364 80.1406C155.458 80.1406 154.809 79.6484 154.614 78.8125H152.302C152.528 80.7266 154.091 82.1562 156.364 82.1562C159.208 82.1562 161.028 79.8906 161.02 76.0469C161.02 71.9375 158.802 70.5391 156.458 70.5312ZM154.473 74.3906C154.458 73.2656 155.317 72.3828 156.473 72.375C157.63 72.3828 158.473 73.2969 158.489 74.375C158.489 75.4609 157.606 76.375 156.458 76.375C155.294 76.375 154.473 75.5078 154.473 74.3906ZM168.37 79.2812V79.875C168.378 81.2266 169.245 82.3828 170.855 82.3906C172.448 82.3828 173.331 81.2266 173.339 79.875V79.2812C173.331 77.9219 172.472 76.7734 170.855 76.7812C169.269 76.7734 168.378 77.9297 168.37 79.2812ZM162.573 73.4062C162.573 74.75 163.441 75.8984 165.058 75.8906C166.652 75.8984 167.534 74.7656 167.527 73.4062V72.8125C167.534 71.4453 166.675 70.2969 165.058 70.2969C163.48 70.2969 162.573 71.4453 162.573 72.8125V73.4062ZM163.292 82H164.73L172.511 70.6875H171.073L163.292 82ZM164.167 73.4062V72.8125C164.175 72.2734 164.386 71.6953 165.058 71.7031C165.753 71.6953 165.933 72.2656 165.933 72.8125V73.4062C165.933 73.9453 165.73 74.5 165.058 74.5C164.394 74.5 164.175 73.9453 164.167 73.4062ZM169.964 79.875V79.2812C169.964 78.7422 170.191 78.1719 170.855 78.1719C171.55 78.1719 171.738 78.7422 171.73 79.2812V79.875C171.738 80.4219 171.527 80.9766 170.855 80.9688C170.175 80.9766 169.964 80.4062 169.964 79.875Z" fill="#333333"/>
<path d="M61 135.5L49.5 124H28" stroke="#888888" stroke-dasharray="2 2"/>
<path d="M61 160L28 160" stroke="#888888" stroke-dasharray="2 2"/>
<defs>
<filter id="filter0_d_58_3" x="33.0996" y="0" width="333.9" height="354" filterUnits="userSpaceOnUse" color-interpolation-filters="sRGB">
<feFlood flood-opacity="0" result="BackgroundImageFix"/>
<feColorMatrix in="SourceAlpha" type="matrix" values="0 0 0 0 0 0 0 0 0 0 0 0 0 0 0 0 0 0 127 0" result="hardAlpha"/>
<feOffset dy="4"/>
<feGaussianBlur stdDeviation="13.5"/>
<feComposite in2="hardAlpha" operator="out"/>
<feColorMatrix type="matrix" values="0 0 0 0 0.258824 0 0 0 0 0.521569 0 0 0 0 0.956863 0 0 0 0.5 0"/>
<feBlend mode="normal" in2="BackgroundImageFix" result="effect1_dropShadow_58_3"/>
<feBlend mode="normal" in="SourceGraphic" in2="effect1_dropShadow_58_3" result="shape"/>
</filter>
</defs>
</svg>
