<svg width="101" height="277" viewBox="0 0 101 277" fill="none" xmlns="http://www.w3.org/2000/svg">
<path d="M100.354 42.3536C100.549 42.1583 100.549 41.8417 100.354 41.6465L97.1716 38.4645C96.9763 38.2692 96.6597 38.2692 96.4645 38.4645C96.2692 38.6597 96.2692 38.9763 96.4645 39.1716L99.2929 42L96.4645 44.8284C96.2692 45.0237 96.2692 45.3403 96.4645 45.5355C96.6597 45.7308 96.9763 45.7308 97.1716 45.5355L100.354 42.3536ZM-4.37114e-08 42.5L1 42.5L1 41.5L4.37114e-08 41.5L-4.37114e-08 42.5ZM3 42.5L5 42.5L5 41.5L3 41.5L3 42.5ZM7 42.5L9 42.5L9 41.5L7 41.5L7 42.5ZM11 42.5L13 42.5L13 41.5L11 41.5L11 42.5ZM15 42.5L17 42.5L17 41.5L15 41.5L15 42.5ZM19 42.5L21 42.5L21 41.5L19 41.5L19 42.5ZM23 42.5L25 42.5L25 41.5L23 41.5L23 42.5ZM27 42.5L29 42.5L29 41.5L27 41.5L27 42.5ZM31 42.5L33 42.5L33 41.5L31 41.5L31 42.5ZM35 42.5L37 42.5L37 41.5L35 41.5L35 42.5ZM39 42.5L41 42.5L41 41.5L39 41.5L39 42.5ZM43 42.5L45 42.5L45 41.5L43 41.5L43 42.5ZM47 42.5L49 42.5L49 41.5L47 41.5L47 42.5ZM51 42.5L53 42.5L53 41.5L51 41.5L51 42.5ZM55 42.5L57 42.5L57 41.5L55 41.5L55 42.5ZM59 42.5L61 42.5L61 41.5L59 41.5L59 42.5ZM63 42.5L65 42.5L65 41.5L63 41.5L63 42.5ZM67 42.5L69 42.5L69 41.5L67 41.5L67 42.5ZM71 42.5L73 42.5L73 41.5L71 41.5L71 42.5ZM75 42.5L77 42.5L77 41.5L75 41.5L75 42.5ZM79 42.5L81 42.5L81 41.5L79 41.5L79 42.5ZM83 42.5L85 42.5L85 41.5L83 41.5L83 42.5ZM87 42.5L89 42.5L89 41.5L87 41.5L87 42.5ZM91 42.5L93 42.5L93 41.5L91 41.5L91 42.5ZM95 42.5L97 42.5L97 41.5L95 41.5L95 42.5ZM99 42.5L100 42.5L100 41.5L99 41.5L99 42.5Z" fill="#555555"/>
<path d="M18.2734 5.62109H16.1113V11.8086H14.6172V5.88477H12.5078V20.8438H14.6172V13.6191H16.1113V21.6172H18.2734V5.62109ZM5.125 17.7148H6.21484C7.86719 17.7236 9.69531 17.6094 11.8398 17.2402L11.6113 15.3066C10.0732 15.6055 8.6582 15.7197 7.375 15.7549V7.39648H5.125V17.7148ZM33.0285 5.62109H30.7609V21.6172H33.0285V5.62109ZM19.5461 16.1152L19.757 17.9434C22.6926 17.9258 26.3928 17.8643 29.7941 17.3105L29.6887 15.6406C29.0119 15.7197 28.3176 15.79 27.6145 15.8428V8.89062H29.0383V7.09766H19.9855V8.89062H21.3918V16.0977C20.7414 16.1064 20.1262 16.1152 19.5461 16.1152ZM23.5715 16.0537V8.89062H25.4348V15.9834C24.8107 16.0186 24.1867 16.0361 23.5715 16.0537ZM47.4848 5.62109H45.2348V15.043H47.4848V11.2637H49.5238V9.40039H47.4848V5.62109ZM34.5121 13.3203L34.7406 14.8672C37.5355 14.8672 41.2445 14.8408 44.6547 14.2695L44.4965 12.8809C43.2572 13.0391 41.9477 13.1445 40.6293 13.2148V12.582C42.352 12.3623 43.4154 11.6416 43.4242 10.5078C43.4154 9.20703 41.8773 8.44238 39.5043 8.45117C37.1137 8.44238 35.5756 9.20703 35.5844 10.5078C35.5756 11.6504 36.6479 12.3711 38.3969 12.5908V13.2939C37.0082 13.3203 35.6811 13.3203 34.5121 13.3203ZM34.934 8.11719H44.0922V6.62305H40.6293V5.48047H38.3969V6.62305H34.934V8.11719ZM36.6391 17.0996H45.2348V17.8379H36.6566V21.5117H48.0121V20.0176H38.9066V19.1914H47.4848V15.6055H36.6391V17.0996ZM37.7289 10.5078C37.7201 10.042 38.3617 9.83984 39.5043 9.83984C40.6293 9.83984 41.2709 10.042 41.2797 10.5078C41.2709 10.9912 40.6293 11.2373 39.5043 11.2461C38.3617 11.2373 37.7201 10.9912 37.7289 10.5078ZM55.8414 7.80078V6.44727H53.5738V7.90625C53.565 10.1387 52.3873 12.2832 49.6539 13.1621L50.8316 14.9551C52.7564 14.3047 54.0484 12.9951 54.7516 11.3252C55.4283 12.7666 56.5973 13.8652 58.3199 14.4629L59.4977 12.7051C56.9313 11.9141 55.8326 9.93652 55.8414 7.80078ZM52.3082 18.5234C52.3082 20.501 54.4 21.626 57.8102 21.6172C61.2291 21.626 63.3209 20.501 63.3297 18.5234C63.3209 16.5547 61.2291 15.4033 57.8102 15.4121C54.4 15.4033 52.3082 16.5547 52.3082 18.5234ZM54.5406 18.5234C54.5406 17.6094 55.692 17.1523 57.8102 17.1523C59.9371 17.1523 61.0885 17.6094 61.0973 18.5234C61.0885 19.4111 59.9371 19.877 57.8102 19.877C55.692 19.877 54.5406 19.4111 54.5406 18.5234ZM58.0387 10.3848H61.0445V14.9902H63.277V5.62109H61.0445V8.55664H58.0387V10.3848ZM78.2957 5.63867H76.0457V17.1348H78.2957V5.63867ZM65.1473 10.6836C65.1473 13.0654 67.0633 14.7441 69.5242 14.7441C71.9764 14.7441 73.8924 13.0654 73.9012 10.6836C73.8924 8.33691 71.9764 6.64941 69.5242 6.6582C67.0633 6.64941 65.1473 8.33691 65.1473 10.6836ZM67.3445 10.6836C67.327 9.38281 68.2674 8.60059 69.5242 8.60938C70.7371 8.60059 71.6775 9.38281 71.6863 10.6836C71.6775 12.0195 70.7371 12.793 69.5242 12.793C68.2674 12.793 67.327 12.0195 67.3445 10.6836ZM67.573 21.3359H78.7176V19.543H69.8406V15.9746H67.573V21.3359ZM85.9141 9.98047V8.99609H89.1309V7.16797H80.2715V8.99609H83.6641V9.98047C83.6465 12.626 82.3018 15.5967 79.6387 16.8359L80.9395 18.6113C82.7852 17.7412 84.1035 15.9482 84.8154 13.8389C85.5361 15.7549 86.8018 17.3896 88.5859 18.207L89.834 16.4492C87.2061 15.2275 85.9053 12.415 85.9141 9.98047ZM90.3789 21.6172H92.6289V13.6016H94.9844V11.7207H92.6289V5.62109H90.3789V21.6172Z" fill="#555555"/>
<rect x="0.5" y="57.5" width="99" height="219" rx="9.5" fill="white" stroke="#E5E5E5"/>
<path d="M20.5449 72.1016H19.2461L22.8691 82H24.168L27.791 72.1016H26.4922L23.5664 80.4004H23.457L20.5449 72.1016ZM28.7809 82H34.8512V80.9062H30.0113V77.584H34.4684V76.5039H30.0113V73.1953H34.7828V72.1016H28.7809V82ZM43.1281 75.1914H44.3996C44.0305 73.2773 42.4172 71.9648 40.3254 71.9648C37.7824 71.9648 35.9846 73.9199 35.9914 77.0508C35.9846 80.1816 37.7619 82.1367 40.4074 82.1367C42.7658 82.1367 44.4543 80.5576 44.4543 78.1035V77.0371H40.6672V78.1172H43.2512C43.2307 79.874 42.0754 80.9814 40.4074 80.9883C38.5754 80.9814 37.1877 79.6006 37.1809 77.0508C37.1877 74.4941 38.5754 73.1133 40.3254 73.1133C41.7404 73.1133 42.7043 73.9199 43.1281 75.1914ZM45.95 82H47.1805V77.584H51.4598V76.5039H47.1805V73.1953H51.9109V72.1016H45.95V82ZM19.5469 93.1953H22.6641V102H23.9082V93.1953H27.0117V92.1016H19.5469V93.1953ZM29.3277 97.543C29.3277 96.2578 30.148 95.5332 31.2555 95.5332C32.3219 95.5332 32.9645 96.1963 32.9645 97.3652V102H34.1402V97.2832C34.1402 95.376 33.1285 94.4805 31.6109 94.4805C30.4352 94.4805 29.7721 94.9727 29.4234 95.7383H29.3277V92.1016H28.152V102H29.3277V97.543ZM35.677 102H36.8527V97.3242C36.8527 96.3262 37.6457 95.5879 38.7121 95.5879C39.0197 95.5879 39.3342 95.6494 39.423 95.6699V94.4805C39.2863 94.4668 38.9855 94.46 38.8078 94.4531C37.9328 94.46 37.1604 94.959 36.8938 95.7109H36.8117V94.5762H35.677V102ZM43.0105 102.15C45.0271 102.157 46.3807 100.626 46.3738 98.3223C46.3807 96.0049 45.0271 94.4805 43.0105 94.4805C40.9871 94.4805 39.6199 96.0049 39.6199 98.3223C39.6199 100.626 40.9871 102.157 43.0105 102.15ZM40.7957 98.3223C40.8025 96.8457 41.4998 95.5195 43.0105 95.5195C44.5076 95.5195 45.198 96.8457 45.198 98.3223C45.198 99.8057 44.5076 101.111 43.0105 101.111C41.4998 101.111 40.8025 99.8057 40.7957 98.3223ZM47.5688 102H48.7445V97.3652C48.7445 96.2852 49.5238 95.5332 50.4125 95.5332C51.267 95.5332 51.8686 96.0938 51.8617 96.9277V102H53.0512V97.1738C53.058 96.2305 53.6459 95.5332 54.6781 95.5332C55.4916 95.5332 56.1752 95.957 56.182 97.0508V102H57.3578V97.0371C57.3578 95.2871 56.4076 94.4805 55.0883 94.4805C54.0219 94.4805 53.2357 94.9727 52.8598 95.7383H52.7777C52.4291 94.9453 51.766 94.4805 50.7953 94.4805C49.8246 94.4805 49.1068 94.9453 48.7992 95.7383H48.7035V94.5762H47.5688V102ZM59.0449 102H60.1797V100.865H60.3164C60.5693 101.275 61.0547 102.157 62.4766 102.15C64.3223 102.157 65.6279 100.667 65.6348 98.3086C65.6279 95.957 64.3223 94.4805 62.4629 94.4805C61.0137 94.4805 60.5693 95.3555 60.3164 95.752H60.2207V92.1016H59.0449V102ZM60.1934 98.2812C60.1934 96.6338 60.9316 95.5332 62.2988 95.5332C63.7344 95.5332 64.4385 96.7295 64.4453 98.2812C64.4385 99.8604 63.7139 101.098 62.2988 101.098C60.9453 101.098 60.1934 99.9492 60.1934 98.2812ZM66.816 102H67.9918V94.5762H66.816V102ZM66.5836 92.5664C66.5768 92.9971 66.9527 93.3457 67.4039 93.3457C67.8551 93.3457 68.2311 92.9971 68.2379 92.5664C68.2311 92.1289 67.8551 91.7803 67.4039 91.7871C66.9527 91.7803 66.5768 92.1289 66.5836 92.5664ZM70.6906 97.543C70.6906 96.2578 71.4836 95.5332 72.5637 95.5332C73.6164 95.5332 74.2453 96.2168 74.2453 97.3652V102H75.4211V97.2832C75.4279 95.3965 74.423 94.4805 72.9191 94.4805C71.7912 94.4805 71.0939 94.9795 70.7453 95.7383H70.6496V94.5762H69.5148V102H70.6906V97.543ZM20.0938 122H21.3242V117.584H26.5605V122H27.8047V112.102H26.5605V116.504H21.3242V112.102H20.0938V122ZM29.4781 122H30.6539V114.576H29.4781V122ZM29.2457 112.566C29.2389 112.997 29.6148 113.346 30.066 113.346C30.5172 113.346 30.8932 112.997 30.9 112.566C30.8932 112.129 30.5172 111.78 30.066 111.787C29.6148 111.78 29.2389 112.129 29.2457 112.566ZM36.3059 116.504H37.4543C37.3039 115.301 36.34 114.48 34.802 114.48C33.1682 114.48 32.0539 115.396 32.0539 116.668C32.0539 117.659 32.7443 118.363 34.0363 118.664L35.1574 118.924C35.9982 119.122 36.3742 119.464 36.3742 119.99C36.3742 120.688 35.7111 121.132 34.6516 121.125C33.715 121.132 33.1887 120.783 33.052 120.059H31.8215C32.0197 121.412 33.0109 122.157 34.6789 122.15C36.5383 122.157 37.5842 121.207 37.591 119.922C37.5842 118.89 36.9348 118.227 35.6086 117.912L34.5012 117.639C33.633 117.427 33.2365 117.092 33.2297 116.6C33.2365 115.978 33.8859 115.485 34.802 115.479C35.6701 115.485 36.1418 115.889 36.3059 116.504ZM42.0125 114.576H40.4539V112.799H39.2645V114.576H38.1434V115.561H39.2645V120.168C39.2713 121.48 40.3104 122.096 41.3016 122.096C41.6502 122.096 41.9373 122.068 42.1219 122.041V120.947C41.951 120.954 41.6365 120.975 41.4246 120.975C40.9256 120.975 40.4471 120.817 40.4539 119.867V115.561H42.0125V114.576ZM42.8246 119.895C42.8246 121.344 43.9457 122.171 45.3539 122.178C46.6459 122.171 47.3227 121.487 47.5688 120.988H47.6234V122H48.7855V117.105C48.7924 114.768 46.9672 114.48 45.9965 114.48C44.3559 114.48 43.1938 115.308 43.0434 116.504H44.2738C44.4379 115.937 45.0053 115.506 45.9418 115.506C47.0629 115.506 47.6234 116.053 47.6234 116.996V117.598C47.2885 117.604 46.0922 117.673 45.6137 117.707C44.3285 117.803 42.8246 118.192 42.8246 119.895ZM44.0004 119.949C44.0072 119.136 44.684 118.76 45.7504 118.691C46.1059 118.671 47.2748 118.582 47.6234 118.562V119.307C47.6234 120.243 46.8852 121.132 45.559 121.125C44.6566 121.132 44.0072 120.735 44.0004 119.949ZM50.3223 122H51.498V117.365C51.498 116.285 52.2773 115.533 53.166 115.533C54.0205 115.533 54.6221 116.094 54.6152 116.928V122H55.8047V117.174C55.8115 116.23 56.3994 115.533 57.4316 115.533C58.2451 115.533 58.9287 115.957 58.9355 117.051V122H60.1113V117.037C60.1113 115.287 59.1611 114.48 57.8418 114.48C56.7754 114.48 55.9893 114.973 55.6133 115.738H55.5312C55.1826 114.945 54.5195 114.48 53.5488 114.48C52.5781 114.48 51.8604 114.945 51.5527 115.738H51.457V114.576H50.3223V122ZM61.648 122H62.8238V114.576H61.648V122ZM61.4156 112.566C61.4088 112.997 61.7848 113.346 62.2359 113.346C62.6871 113.346 63.0631 112.997 63.0699 112.566C63.0631 112.129 62.6871 111.78 62.2359 111.787C61.7848 111.78 61.4088 112.129 61.4156 112.566ZM65.5227 117.543C65.5227 116.258 66.3156 115.533 67.3957 115.533C68.4484 115.533 69.0773 116.217 69.0773 117.365V122H70.2531V117.283C70.26 115.396 69.2551 114.48 67.7512 114.48C66.6232 114.48 65.926 114.979 65.5773 115.738H65.4816V114.576H64.3469V122H65.5227V117.543ZM74.907 122.15C76.4383 122.157 77.5389 121.392 77.8875 120.264H76.6297C76.3563 120.722 75.7957 121.111 74.907 121.111C73.5877 121.111 72.6717 120.25 72.6102 118.678H77.9969V118.186C78.0037 115.438 76.3563 114.48 74.7977 114.48C72.7811 114.48 71.4344 116.066 71.4344 118.35C71.4344 120.626 72.7605 122.157 74.907 122.15ZM72.617 117.68C72.699 116.531 73.5125 115.52 74.7977 115.52C76.0213 115.52 76.8006 116.442 76.8074 117.68H72.617ZM19.5469 133.195H22.6641V142H23.9082V133.195H27.0117V132.102H19.5469V133.195ZM36.1637 132.102H34.9469V139.826H34.8512L29.4918 132.102H28.3023V142H29.5328V134.289H29.6285L34.9879 142H36.1637V132.102ZM38.0012 142H39.2316V137.584H43.5109V136.504H39.2316V133.195H43.9621V132.102H38.0012V142ZM49.5457 137.229H45.2117V138.309H49.5457V137.229ZM50.6449 139.895C50.6449 141.344 51.766 142.171 53.1742 142.178C54.4662 142.171 55.143 141.487 55.3891 140.988H55.4438V142H56.6059V137.105C56.6127 134.768 54.7875 134.48 53.8168 134.48C52.1762 134.48 51.0141 135.308 50.8637 136.504H52.0941C52.2582 135.937 52.8256 135.506 53.7621 135.506C54.8832 135.506 55.4438 136.053 55.4438 136.996V137.598C55.1088 137.604 53.9125 137.673 53.434 137.707C52.1488 137.803 50.6449 138.192 50.6449 139.895ZM51.8207 139.949C51.8275 139.136 52.5043 138.76 53.5707 138.691C53.9262 138.671 55.0951 138.582 55.4438 138.562V139.307C55.4438 140.243 54.7055 141.132 53.3793 141.125C52.477 141.132 51.8275 140.735 51.8207 139.949ZM21.3242 152.102H20.0938V162H21.3242V152.102ZM23.1617 162H28.9859V160.906H24.3922V152.102H23.1617V162ZM33.2434 156.518H28.9094V157.598H33.2434V156.518ZM38.1844 152.102H36.9402L34.4793 153.742V154.986L36.8855 153.387H36.9402V162H38.1844V152.102ZM40.6371 162H41.7719V160.865H41.9086C42.1615 161.275 42.6469 162.157 44.0688 162.15C45.9145 162.157 47.2201 160.667 47.227 158.309C47.2201 155.957 45.9145 154.48 44.0551 154.48C42.6059 154.48 42.1615 155.355 41.9086 155.752H41.8129V152.102H40.6371V162ZM41.7855 158.281C41.7855 156.634 42.5238 155.533 43.891 155.533C45.3266 155.533 46.0307 156.729 46.0375 158.281C46.0307 159.86 45.3061 161.098 43.891 161.098C42.5375 161.098 41.7855 159.949 41.7855 158.281ZM20.5312 182L21.5225 179.211H25.501L26.4922 182H27.791L24.168 172.102H22.8691L19.2461 182H20.5312ZM21.8984 178.131L23.4707 173.701H23.5527L25.125 178.131H21.8984ZM29.8062 177.543C29.8062 176.258 30.5992 175.533 31.6793 175.533C32.732 175.533 33.3609 176.217 33.3609 177.365V182H34.5367V177.283C34.5436 175.396 33.5387 174.48 32.0348 174.48C30.9068 174.48 30.2096 174.979 29.8609 175.738H29.7652V174.576H28.6305V182H29.8062V177.543ZM39.0812 184.939C40.8928 184.939 42.301 184.119 42.3078 182.205V174.576H41.1594V175.752H41.0637C40.7971 175.355 40.3322 174.48 38.8898 174.48C37.0236 174.48 35.718 175.902 35.718 178.186C35.718 180.523 37.0715 181.884 38.8762 181.891C40.3117 181.884 40.7834 181.043 41.0363 180.633H41.132V182.137C41.132 183.36 40.3527 183.914 39.0812 183.914C38.0285 183.914 37.3244 183.538 37.1672 182.779H35.9367C36.0666 184.153 37.2834 184.939 39.0812 184.939ZM36.9074 178.227C36.9074 176.729 37.6115 175.533 39.0402 175.533C40.4211 175.533 41.1525 176.634 41.1594 178.227C41.1525 179.86 40.4006 180.838 39.0402 180.838C37.632 180.838 36.9074 179.765 36.9074 178.227ZM48.0828 177.229H43.7488V178.309H48.0828V177.229ZM49.0727 182H55.4984V180.906H50.7816V180.824L53.0512 178.486C54.8012 176.682 55.3139 175.82 55.3207 174.713C55.3139 173.175 54.0424 171.965 52.2445 171.965C50.4535 171.965 49.1 173.141 49.1137 174.891H50.2758C50.2826 173.783 51.0209 173.038 52.2035 173.031C53.3178 173.038 54.1654 173.694 54.1723 174.713C54.1654 175.629 53.6049 176.299 52.4359 177.543L49.059 181.098L49.0727 182ZM20.0938 192.102V202H21.2559V194.521H21.3379L24.4141 202H25.5078L28.584 194.521H28.6797V202H29.8418V192.102H28.3652L25.0293 200.25H24.9062L21.5703 192.102H20.0938ZM34.5641 202.15C36.2115 202.157 37.3053 201.139 37.4898 199.812H36.3141C36.109 200.626 35.4391 201.098 34.5641 201.098C33.2174 201.098 32.3561 199.997 32.3492 198.281C32.3561 196.613 33.2379 195.52 34.5641 195.52C35.5553 195.52 36.1432 196.142 36.3141 196.818H37.4898C37.3053 195.417 36.1158 194.48 34.5367 194.48C32.5201 194.48 31.1734 196.066 31.1734 198.322C31.1734 200.551 32.4586 202.157 34.5641 202.15ZM38.5891 204.789H39.7648V200.865H39.8605C40.1135 201.275 40.6057 202.157 42.0207 202.15C43.8732 202.157 45.1652 200.667 45.1652 198.309C45.1652 195.957 43.8732 194.48 42.007 194.48C40.5646 194.48 40.1135 195.355 39.8605 195.752H39.7238V194.576H38.5891V204.789ZM39.7375 198.281C39.7443 196.634 40.4689 195.533 41.8566 195.533C43.2854 195.533 43.9895 196.729 43.9895 198.281C43.9895 199.86 43.2648 201.098 41.8566 201.098C40.4895 201.098 39.7443 199.949 39.7375 198.281ZM50.5984 197.229H46.2645V198.309H50.5984V197.229ZM55.5395 192.102H54.2953L51.8344 193.742V194.986L54.2406 193.387H54.2953V202H55.5395V192.102ZM20.0938 222H25.918V220.906H21.3242V212.102H20.0938V222ZM27.2086 222H28.4391V218.404H30.5855C32.8893 218.404 33.9488 217.003 33.9488 215.246C33.9488 213.482 32.8893 212.102 30.5719 212.102H27.2086V222ZM28.4391 217.311V213.195H30.5172C32.11 213.195 32.7252 214.063 32.732 215.246C32.7252 216.422 32.11 217.311 30.5309 217.311H28.4391ZM40.7219 214.59H41.925C41.8771 213.086 40.4963 211.965 38.5754 211.965C36.6545 211.965 35.1643 213.065 35.1711 214.74C35.1643 216.08 36.135 216.873 37.6867 217.324L38.9035 217.652C39.9426 217.946 40.8586 218.315 40.8586 219.279C40.8586 220.359 39.8332 221.063 38.466 221.057C37.2902 221.063 36.258 220.537 36.1555 219.43H34.8977C35.0139 221.07 36.3332 222.171 38.466 222.178C40.7629 222.171 42.0617 220.92 42.0617 219.307C42.0617 217.454 40.3186 216.846 39.259 216.572L38.2746 216.299C37.5227 216.114 36.3674 215.725 36.3605 214.686C36.3674 213.742 37.2219 213.059 38.5344 213.059C39.717 213.059 40.6193 213.619 40.7219 214.59ZM20.0938 242H23.6895C26.0273 242 27.0049 240.858 27.0117 239.375C27.0049 237.803 25.9248 236.955 25.002 236.9V236.805C25.8633 236.565 26.6221 235.998 26.6152 234.727C26.6221 233.271 25.6445 232.102 23.5664 232.102H20.0938V242ZM21.3242 240.906V237.502H23.7441C25.0156 237.502 25.8291 238.356 25.8223 239.361C25.8291 240.223 25.2275 240.906 23.6758 240.906H21.3242ZM21.3242 236.436V233.195H23.5664C24.8584 233.195 25.4395 233.879 25.4395 234.74C25.4395 235.772 24.5986 236.442 23.5254 236.436H21.3242ZM28.2613 242H29.4371V237.324C29.4371 236.326 30.2301 235.588 31.2965 235.588C31.6041 235.588 31.9186 235.649 32.0074 235.67V234.48C31.8707 234.467 31.5699 234.46 31.3922 234.453C30.5172 234.46 29.7447 234.959 29.4781 235.711H29.3961V234.576H28.2613V242ZM32.4367 239.895C32.4367 241.344 33.5578 242.171 34.966 242.178C36.258 242.171 36.9348 241.487 37.1809 240.988H37.2355V242H38.3977V237.105C38.4045 234.768 36.5793 234.48 35.6086 234.48C33.968 234.48 32.8059 235.308 32.6555 236.504H33.8859C34.05 235.937 34.6174 235.506 35.5539 235.506C36.675 235.506 37.2355 236.053 37.2355 236.996V237.598C36.9006 237.604 35.7043 237.673 35.2258 237.707C33.9406 237.803 32.4367 238.192 32.4367 239.895ZM33.6125 239.949C33.6193 239.136 34.2961 238.76 35.3625 238.691C35.718 238.671 36.8869 238.582 37.2355 238.562V239.307C37.2355 240.243 36.4973 241.132 35.1711 241.125C34.2688 241.132 33.6193 240.735 33.6125 239.949ZM42.7371 242.15C44.1521 242.157 44.6375 241.275 44.8973 240.865H45.0203V242H46.1688V232.102H44.9793V235.752H44.8973C44.6443 235.355 44.1932 234.48 42.7508 234.48C40.8846 234.48 39.5789 235.957 39.5789 238.309C39.5789 240.667 40.8846 242.157 42.7371 242.15ZM40.7684 238.281C40.7684 236.729 41.4725 235.533 42.9012 235.533C44.282 235.533 45.0135 236.634 45.0203 238.281C45.0135 239.949 44.2615 241.098 42.9012 241.098C41.493 241.098 40.7684 239.86 40.7684 238.281ZM48.6078 244.789C49.6605 244.782 50.3852 244.235 50.8227 243.066L53.9672 234.576H52.682L50.6586 240.469H50.5766L48.5531 234.576H47.268L50.016 242.055L49.7973 242.615C49.4076 243.702 49.0043 243.729 48.5258 243.736C48.3412 243.729 48.0746 243.723 47.9516 243.709V244.762C48.102 244.775 48.3549 244.782 48.6078 244.789ZM54.916 242H56.0918V239.231L56.8779 238.5L59.6328 242H61.123L57.7598 237.755L60.8906 234.576H59.4414L56.2285 237.857H56.0918V232.102H54.916V242ZM61.7984 242H62.9742V234.576H61.7984V242ZM61.566 232.566C61.5592 232.997 61.9352 233.346 62.3863 233.346C62.8375 233.346 63.2135 232.997 63.2203 232.566C63.2135 232.129 62.8375 231.78 62.3863 231.787C61.9352 231.78 61.5592 232.129 61.566 232.566ZM65.673 237.543C65.673 236.258 66.466 235.533 67.5461 235.533C68.5988 235.533 69.2277 236.217 69.2277 237.365V242H70.4035V237.283C70.4104 235.396 69.4055 234.48 67.9016 234.48C66.7736 234.48 66.0764 234.979 65.7277 235.738H65.632V234.576H64.4973V242H65.673V237.543ZM71.9402 242H73.116V234.576H71.9402V242ZM71.7078 232.566C71.701 232.997 72.077 233.346 72.5281 233.346C72.9793 233.346 73.3553 232.997 73.3621 232.566C73.3553 232.129 72.9793 231.78 72.5281 231.787C72.077 231.78 71.701 232.129 71.7078 232.566ZM75.8148 237.543C75.8148 236.258 76.6078 235.533 77.6879 235.533C78.7406 235.533 79.3695 236.217 79.3695 237.365V242H80.5453V237.283C80.5521 235.396 79.5473 234.48 78.0434 234.48C76.9154 234.48 76.2182 234.979 75.8695 235.738H75.7738V234.576H74.6391V242H75.8148V237.543ZM23.0605 262.15C24.5918 262.157 25.6924 261.392 26.041 260.264H24.7832C24.5098 260.722 23.9492 261.111 23.0605 261.111C21.7412 261.111 20.8252 260.25 20.7637 258.678H26.1504V258.186C26.1572 255.438 24.5098 254.48 22.9512 254.48C20.9346 254.48 19.5879 256.066 19.5879 258.35C19.5879 260.626 20.9141 262.157 23.0605 262.15ZM20.7705 257.68C20.8525 256.531 21.666 255.52 22.9512 255.52C24.1748 255.52 24.9541 256.442 24.9609 257.68H20.7705ZM30.5719 254.576H29.0133V252.799H27.8238V254.576H26.7027V255.561H27.8238V260.168C27.8307 261.48 28.8697 262.096 29.8609 262.096C30.2096 262.096 30.4967 262.068 30.6813 262.041V260.947C30.5104 260.954 30.1959 260.975 29.984 260.975C29.485 260.975 29.0064 260.817 29.0133 259.867V255.561H30.5719V254.576ZM34.6926 262.15C36.34 262.157 37.4338 261.139 37.6184 259.812H36.4426C36.2375 260.626 35.5676 261.098 34.6926 261.098C33.3459 261.098 32.4846 259.997 32.4777 258.281C32.4846 256.613 33.3664 255.52 34.6926 255.52C35.6838 255.52 36.2717 256.142 36.4426 256.818H37.6184C37.4338 255.417 36.2443 254.48 34.6652 254.48C32.6486 254.48 31.302 256.066 31.302 258.322C31.302 260.551 32.5871 262.157 34.6926 262.15Z" fill="#555555"/>
</svg>
