<svg width="260" height="120" viewBox="0 0 260 120" fill="none" xmlns="http://www.w3.org/2000/svg">
<rect x="0.5" y="0.5" width="259" height="119" rx="9.5" stroke="#E5E5E5"/>
<path fill-rule="evenodd" clip-rule="evenodd" d="M67.3262 59.9605C67.3262 69.1913 74.8487 76.6075 84.034 76.6075C93.2194 76.6075 100.742 69.1913 100.742 59.9605C100.742 50.7298 93.2194 43.3136 84.034 43.3136C74.8487 43.3136 67.3262 50.8087 67.3262 59.9605Z" fill="white"/>
<path fill-rule="evenodd" clip-rule="evenodd" d="M84.0336 40C72.9478 40 64 48.9152 64 59.9606C64 71.0059 72.9478 80 84.0336 80C95.1194 80 104.067 71.0059 104.067 59.9606C104.067 48.9152 95.1194 40 84.0336 40ZM84.1128 74.4773C76.036 74.4773 69.4637 67.929 69.4637 59.8817C69.4637 51.8343 76.036 45.3649 84.1128 45.3649C92.1896 45.3649 98.7619 51.9132 98.7619 59.9606C98.6827 68.0079 92.1896 74.4773 84.1128 74.4773Z" fill="#003876"/>
<path fill-rule="evenodd" clip-rule="evenodd" d="M65.9007 56.8047L65.8215 57.2781V57.5937V57.6726C65.9007 57.6726 65.9007 57.6726 65.9007 57.5937C65.9799 57.5937 65.9799 57.5937 65.9799 57.5937C65.9799 57.5937 66.0591 57.5937 66.1383 57.6726C66.2175 57.6726 66.3758 57.8304 66.6134 57.9882C66.7717 58.146 66.9301 58.2249 67.0093 58.2249H66.9301C66.6134 58.3827 66.0591 58.6193 65.9007 58.6982H65.8215C65.8215 58.6193 65.8215 58.6193 65.7424 58.6193V58.6982V58.9349V59.0138V59.2505L65.584 59.5661C65.584 59.645 65.6632 59.645 65.6632 59.645C65.6632 59.645 65.6632 59.645 65.6632 59.5661C65.6632 59.5661 65.6632 59.4872 65.7424 59.4872C65.7424 59.4083 65.9007 59.3294 65.9799 59.2505C66.2966 59.1716 67.1677 58.6982 67.1677 58.6982C67.2469 58.6193 67.326 58.6193 67.5636 58.6193H67.8011L68.1971 58.6982C68.1971 58.6982 68.3554 58.6982 68.3554 58.7771V58.9349V59.0138C68.4346 59.0138 68.4346 59.0138 68.4346 58.9349V58.6982V58.5404V58.3827L68.5138 57.9882V57.9093C68.5138 57.9093 68.5138 57.9093 68.4346 57.9882V58.146C68.4346 58.2249 68.3554 58.2249 68.2762 58.2249L67.9595 58.146H67.6428C67.5636 58.146 67.4052 58.146 67.326 58.0671C67.2469 57.9882 66.3758 57.4359 66.2966 57.2781C66.2175 57.1992 66.1383 57.1203 66.1383 57.0414V56.9625C65.9799 56.8047 65.9799 56.8047 65.9007 56.8047Z" fill="white"/>
<path fill-rule="evenodd" clip-rule="evenodd" d="M67.484 55.7791C66.613 55.4635 66.613 54.9112 66.6922 54.5957C66.7714 54.359 66.9297 54.2012 67.1673 54.0434C67.4048 53.8856 67.8008 53.8856 68.1967 54.0434C68.5926 54.1223 68.9093 54.359 68.9885 54.5957C69.0677 54.8323 69.0677 55.069 68.9885 55.1479C68.9093 55.7002 68.1967 56.0158 67.484 55.7791ZM67.2465 53.4122C66.9297 53.57 66.6922 53.8856 66.5338 54.359C66.3754 54.7535 66.4546 55.1479 66.5338 55.5424C66.6922 55.858 67.0089 56.0947 67.4048 56.2525C68.0383 56.4892 68.9093 56.2525 69.2261 55.3057C69.3053 54.9112 69.3053 54.5168 69.1469 54.1223C68.9885 53.8067 68.6718 53.4911 68.2759 53.4122C67.8799 53.2544 67.484 53.2544 67.2465 53.4122Z" fill="white"/>
<path fill-rule="evenodd" clip-rule="evenodd" d="M69.1469 49.1519L68.9885 49.3886V49.4674L68.9094 49.5463L68.751 49.8619V49.9408C68.751 49.9408 68.751 49.9408 68.8302 49.9408C68.9094 49.9408 68.9094 49.8619 68.9094 49.783C68.9885 49.783 68.9885 49.783 69.2261 49.8619C69.2261 49.8619 70.3347 50.4931 70.5722 50.6509C70.493 50.6509 70.2555 50.7298 70.2555 50.7298L69.4636 50.8876C68.751 51.0454 67.88 51.2031 67.88 51.2031V51.2031C67.88 51.2031 67.8008 51.2031 67.8008 51.282L67.88 51.3609L69.7012 52.6233C69.9388 52.7811 70.0179 52.86 70.0179 52.86L69.9388 53.0177C69.9388 53.0177 70.0179 53.0177 70.0179 52.9388L70.1763 52.6233V52.5444L70.3347 52.2288C70.3347 52.2288 70.4139 52.1499 70.3347 52.071L70.2555 52.1499C70.2555 52.1499 70.1763 52.2288 70.1763 52.3077C70.1763 52.3077 70.0971 52.3077 69.7804 52.2288C69.7804 52.2288 68.6718 51.5976 68.5134 51.5187C68.751 51.5187 69.2261 51.4398 69.622 51.282L70.2555 51.1243L71.0473 50.9665C71.1265 50.9665 71.1265 50.9665 71.2057 50.8876L71.1265 50.8087L69.1469 49.6252C68.9885 49.5463 68.9885 49.4674 68.9885 49.3886V49.3097C68.9885 49.3097 68.9885 49.3097 68.9885 49.2308C69.2261 49.073 69.1469 49.1519 69.1469 49.1519Z" fill="white"/>
<path fill-rule="evenodd" clip-rule="evenodd" d="M71.2058 46.8639C71.1266 46.9428 70.9683 47.0217 70.8099 47.1795C70.6515 47.4162 70.4932 47.6528 70.4932 47.8895C70.4932 48.0473 70.5723 48.2051 70.7307 48.3629C70.9683 48.5996 71.2058 48.5996 71.7601 48.5207H71.9185C72.2352 48.4418 72.3936 48.5207 72.552 48.5996C72.552 48.6785 72.6311 48.7574 72.6311 48.8363C72.7103 48.9152 72.6311 48.9941 72.552 49.1519C72.4728 49.2308 72.2352 49.3885 71.9977 49.3097C71.9185 49.3097 71.8393 49.2308 71.8393 49.2308C71.7601 49.2308 71.7601 49.2308 71.7601 49.2308C71.7601 49.2308 71.7601 49.3097 71.8393 49.3097L72.156 49.6252C72.2352 49.6252 72.2352 49.7041 72.3144 49.6252C72.4728 49.5463 72.552 49.4674 72.7103 49.3097C72.8687 49.1519 72.9479 48.9941 73.0271 48.7574C73.0271 48.6785 73.0271 48.6785 73.0271 48.5996C73.0271 48.3629 72.8687 48.1262 72.7895 48.0473C72.552 47.8106 72.2352 47.7317 71.6809 47.8106H71.6017C71.2058 47.8106 71.1266 47.8106 70.9683 47.7317C70.8891 47.8895 70.8099 47.8106 70.8099 47.7317C70.8099 47.6528 70.8099 47.574 70.8891 47.4162C71.1266 47.2584 71.2058 47.2584 71.3642 47.2584C71.4434 47.2584 71.5226 47.3373 71.5226 47.3373H71.6017H71.6809C71.6809 47.3373 71.6809 47.2584 71.6017 47.2584L71.3642 46.9428H71.285C71.285 46.8639 71.2058 46.8639 71.2058 46.8639Z" fill="white"/>
<path fill-rule="evenodd" clip-rule="evenodd" d="M73.7397 44.7337L73.5813 44.8915L72.8687 45.3649L72.7103 45.6016L72.4727 45.7593L72.3936 45.8382H72.4727L72.5519 45.7593C72.6311 45.7593 72.7103 45.7593 72.7895 45.8382C72.8687 45.9171 72.8687 45.996 73.2646 46.4694L73.6605 46.9428C73.8189 47.1795 73.9772 47.4161 74.0564 47.5739C74.0564 47.6528 74.1356 47.7317 74.0564 47.7317L73.9772 47.8106C73.8981 47.8106 73.8981 47.8895 73.9772 47.8895H74.0564L74.294 47.7317L74.3732 47.6528L74.6107 47.495L75.165 47.1006C75.2442 47.0217 75.3234 47.0217 75.2442 46.8639C75.2442 46.785 75.0858 46.6272 75.0858 46.5483H75.0066V46.6272C75.0858 46.7061 75.0858 46.785 75.0066 46.8639C75.0858 47.0217 75.0066 47.1006 74.9274 47.1795C74.6899 47.4161 74.6107 47.3373 74.4523 47.1795L74.2148 46.8639L74.1356 46.785L73.9772 46.5483C73.9772 46.3905 74.294 46.2327 74.294 46.1538C74.3732 46.1538 74.4523 46.1538 74.5315 46.1538L74.6107 46.2327V46.3116H74.6899V46.2327V46.1538L74.6107 45.996L74.5315 45.7593H74.4523C74.4523 45.7593 74.4523 45.7593 74.4523 45.8382C74.4523 45.9171 74.4523 45.9171 74.3732 45.996C74.294 45.996 74.294 46.0749 73.8981 46.3116L73.1854 45.5227C73.2646 45.4438 73.5021 45.286 73.5813 45.2071C73.7397 45.1282 73.7397 45.1282 73.8189 45.2071L73.8981 45.286C73.8981 45.3649 73.9772 45.286 73.9772 45.286C73.9772 45.286 73.9772 45.286 73.9772 45.2071L73.8981 45.0493L73.8189 44.9704L73.7397 44.8126V44.7337Z" fill="white"/>
<path fill-rule="evenodd" clip-rule="evenodd" d="M75.957 43.5503L75.7194 43.6292L75.561 43.7081L75.1651 43.9448C75.1651 43.9448 75.0859 43.9448 75.0859 44.1026C75.0859 44.1026 75.0859 44.1026 75.1651 44.1026L75.2443 44.0237C75.2443 44.0237 75.3235 44.0237 75.4027 44.1026L75.7194 44.7337L76.0361 45.286C76.1945 45.6016 76.3529 45.8383 76.3529 45.996C76.3529 46.0749 76.3529 46.1538 76.3529 46.1538L76.2737 46.2327V46.3116C76.2737 46.3116 76.2737 46.3905 76.3529 46.3116H76.6696L76.7488 46.2327L76.9072 46.1538L77.2239 45.996C77.3031 45.9171 77.3031 45.9171 77.3031 45.9171H77.2239H77.0655C76.9864 45.9171 76.9864 45.9171 76.9072 45.8383C76.828 45.7594 76.7488 45.5227 76.5904 45.2071L76.2737 44.6548C76.0361 44.1814 75.957 44.1026 75.957 43.9448V43.8659C75.957 43.8659 75.957 43.8659 75.957 43.787H76.0361C76.0361 43.787 76.0361 43.787 76.0361 43.7081C76.0361 43.4714 75.957 43.5503 75.957 43.5503Z" fill="white"/>
<path fill-rule="evenodd" clip-rule="evenodd" d="M81.8161 41.7357H81.4994H81.4202L81.0243 41.8146H80.9451V41.8935H81.0243H81.1035C81.1826 41.8935 81.2618 41.8935 81.2618 41.9724L81.4202 42.7614L81.4994 43.1558C81.5786 43.5503 81.5786 43.8659 81.4994 44.0237C81.4202 44.1815 81.1826 44.2604 81.1035 44.2604C81.0243 44.2604 80.8659 44.2604 80.6284 44.2604C80.47 44.1815 80.3116 44.0237 80.2324 43.4714L80.1533 42.998L80.0741 42.2091C79.9949 42.1302 80.0741 42.0513 80.1533 42.0513H80.2324C80.3116 42.0513 80.3116 41.9724 80.3116 41.9724H80.2324L79.9949 42.0513L79.8365 42.1302H79.6781H79.3614C79.3614 42.1302 79.3614 42.1302 79.2822 42.1302H79.3614H79.4406C79.5198 42.1302 79.5198 42.1302 79.599 42.288C79.6781 42.4458 79.599 42.4458 79.7573 42.998L79.8365 43.5503C79.9157 43.9448 80.0741 44.2604 80.3116 44.4182C80.6284 44.5759 81.0243 44.4971 81.1826 44.4971C81.4202 44.4971 81.6578 44.4182 81.8953 44.1026C82.1329 43.787 82.1329 43.3136 82.0537 42.9191L81.9745 42.5247L81.8161 41.7357C81.8161 41.5779 81.8161 41.5779 81.8953 41.5779H81.9745C81.9745 41.499 82.0537 41.499 82.0537 41.499C81.9745 41.7357 81.8953 41.7357 81.8161 41.7357Z" fill="white"/>
<path fill-rule="evenodd" clip-rule="evenodd" d="M83.6372 41.5779C83.6372 41.5779 83.6372 41.5779 83.6372 41.6568L83.4788 43.787C83.4788 44.1025 83.4788 44.1814 83.3997 44.1814H83.2413C83.1621 44.1814 83.1621 44.2603 83.1621 44.2603V44.3392C83.1621 44.3392 83.1621 44.3392 83.2413 44.3392H83.558H83.6372H83.954H84.0331V44.2603H83.954C83.954 44.2603 83.8748 44.2603 83.7956 44.1814C83.8748 44.3392 83.7956 44.2603 83.7956 43.9447C83.7956 43.9447 83.8748 42.6035 83.8748 42.5246C84.0331 42.6824 84.3499 43.0769 84.5874 43.3925L85.0625 43.8658L85.6168 44.497L85.696 44.5759C85.7752 44.5759 85.7752 44.497 85.7752 44.4181L85.9336 42.1301C85.9336 41.8935 85.9336 41.8935 86.0127 41.8935H86.0919L86.1711 41.8146L86.0919 41.7357H85.8544H85.7752H85.696H85.3793C85.3001 41.7357 85.3001 41.7357 85.3001 41.7357C85.3001 41.7357 85.3001 41.8146 85.3793 41.8146C85.3793 41.8146 85.4585 41.8146 85.5376 41.8146C85.6168 41.8935 85.6168 41.8935 85.6168 42.0513C85.6168 42.0513 85.6168 43.3925 85.6168 43.6292C85.6168 43.5503 85.3793 43.3925 85.3793 43.3925L84.9042 42.8402C84.4291 42.2879 83.8748 41.6568 83.8748 41.5779H83.7956C83.7956 41.5779 83.7164 41.5779 83.6372 41.5779Z" fill="white"/>
<path fill-rule="evenodd" clip-rule="evenodd" d="M87.7554 42.0513L87.8346 42.1302L87.9137 42.2091C87.9929 42.2091 87.9929 42.288 87.9929 42.3669L87.8346 43.1558L87.6762 43.787C87.597 44.1026 87.5178 44.4181 87.5178 44.497C87.5178 44.5759 87.4386 44.6548 87.4386 44.6548H87.3595H87.2803L87.3595 44.7337H87.597H87.7554H87.9137L88.3097 44.8126C88.3889 44.8126 88.3889 44.8126 88.3889 44.8126H88.3097L88.1513 44.7337C88.0721 44.7337 88.0721 44.6548 88.0721 44.5759C88.0721 44.4181 88.1513 44.1026 88.2305 43.787L88.3097 43.1558L88.468 42.4457C88.5472 42.4457 88.5472 42.3669 88.6264 42.3669H88.7056H88.7848C88.7848 42.3669 88.7848 42.288 88.7056 42.288H88.468H88.3097L87.8346 42.1302C87.8346 42.0513 87.7554 42.0513 87.7554 42.0513Z" fill="white"/>
<path fill-rule="evenodd" clip-rule="evenodd" d="M89.8145 42.5247V42.6036L89.8936 42.6824C89.9728 42.7613 89.9728 42.7613 89.9728 42.998V45.5227C89.9728 45.6805 89.9728 45.7594 89.9728 45.7594C90.052 45.7594 90.052 45.7594 90.2104 45.6016L91.0814 44.8126L91.7149 44.4181L92.1108 44.0237C92.2692 43.8659 92.3483 43.8659 92.4275 43.8659C92.5067 43.8659 92.5067 43.8659 92.5859 43.8659H92.6651C92.6651 43.8659 92.6651 43.787 92.5859 43.787L92.4275 43.7081H92.3483H92.2692L92.0316 43.6292C92.0316 43.6292 91.9524 43.6292 91.8732 43.6292C91.8732 43.6292 91.9524 43.6292 91.9524 43.7081H92.0316C92.0316 43.7081 92.0316 43.7081 91.9524 43.787L91.1606 44.6548C91.1606 44.6548 90.7647 45.0493 90.6855 45.1282C90.6855 45.0493 90.7647 43.3925 90.7647 43.3925C90.7647 43.2347 90.7647 43.1558 90.7647 43.1558C90.7647 43.1558 90.7647 43.1558 90.8438 43.1558H90.923C91.0022 43.1558 91.0022 43.1558 91.0022 43.1558C91.0022 43.1558 91.0022 43.1558 90.923 43.0769L90.6855 42.998H90.6063L90.4479 42.9191L90.1312 42.8402C89.8936 42.5247 89.8145 42.5247 89.8145 42.5247Z" fill="white"/>
<path fill-rule="evenodd" clip-rule="evenodd" d="M93.4566 44.2604V44.3393L93.5358 44.4182C93.615 44.4971 93.615 44.576 93.5358 44.6549C93.4566 44.7337 93.4566 44.8126 93.1399 45.286L92.8232 45.8383C92.6648 46.075 92.5064 46.3117 92.3481 46.4694C92.2689 46.5483 92.2689 46.5483 92.1897 46.5483L92.1105 46.4694H92.0313H91.9521L92.0313 46.5483L92.2689 46.7061L92.4273 46.785L92.6648 47.1006L93.2983 47.4951C93.3775 47.574 93.4566 47.574 93.5358 47.4951C93.615 47.4951 93.7734 47.2584 93.7734 47.1795L93.8526 47.1006H93.7734H93.6942C93.615 47.1795 93.5358 47.1795 93.4566 47.1795C93.3775 47.1795 93.2191 47.1006 93.1399 47.0217C92.9815 46.9428 92.9024 46.8639 92.9024 46.785C92.9024 46.785 92.9024 46.7061 92.9815 46.6272L93.2191 46.3117L93.2983 46.1539L93.4566 45.9172C93.5358 45.9961 93.7734 46.1539 93.8526 46.2328C93.8526 46.3117 93.9318 46.3117 93.9318 46.3906C93.9318 46.3906 93.9318 46.3906 93.9318 46.4694V46.5483C93.9318 46.5483 93.9318 46.5483 93.9318 46.6272C93.9318 46.7061 94.0109 46.6272 94.0109 46.6272L94.1693 46.4694L94.3277 46.3117V46.2328V46.1539C94.3277 46.1539 94.3277 46.1539 94.2485 46.1539C94.2485 46.2328 94.1693 46.1539 94.0901 46.1539C94.0901 46.1539 93.8526 46.075 93.615 45.8383L94.0901 45.0493C94.1693 45.0493 94.4069 45.286 94.486 45.3649C94.5652 45.4438 94.6444 45.4438 94.6444 45.5227C94.6444 45.6016 94.6444 45.5227 94.5652 45.5227V45.6016V45.6805H94.6444L94.8028 45.5227L94.882 45.4438L94.9611 45.286C94.9611 45.2071 94.9611 45.2071 94.9611 45.2071L94.8028 45.1282C94.7236 45.1282 94.1693 44.7337 94.0901 44.6549L93.9318 44.576L93.6942 44.4182C93.5358 44.2604 93.5358 44.2604 93.4566 44.2604Z" fill="white"/>
<path fill-rule="evenodd" clip-rule="evenodd" d="M96.1492 48.1262C96.07 48.1262 96.07 48.0473 95.9908 47.9684C95.9116 47.8895 95.8325 47.8106 95.8325 47.7317L96.6243 46.9428C96.6243 46.9428 96.6243 46.9428 96.7035 46.9428L96.7827 47.0217C96.8619 47.1006 96.941 47.2584 96.941 47.3373C96.941 47.4951 96.8619 47.6528 96.7035 47.8106C96.4659 48.1262 96.3076 48.2051 96.1492 48.1262ZM96.1492 46.2327V46.3116L96.2284 46.4694C96.3076 46.5483 96.3076 46.5483 96.2284 46.6272L95.6741 47.1795L95.2782 47.6528C95.0406 47.8895 94.8822 48.0473 94.7239 48.2051C94.6447 48.2051 94.5655 48.284 94.5655 48.2051L94.4863 48.1262V48.2051V48.284L94.7239 48.4418L94.8031 48.5207L94.8822 48.5996L95.1198 48.9152H95.199H95.2782H95.199L95.1198 48.8363V48.7574C95.1198 48.7574 95.1198 48.6785 95.199 48.5996C95.2782 48.5207 95.5157 48.284 95.7533 48.0473L95.9116 48.284V48.5207L95.8325 48.8363C95.8325 49.073 95.8325 49.2308 95.8325 49.3097C95.8325 49.3885 95.8325 49.4674 95.8325 49.5463C95.8325 49.6252 95.9116 49.7041 96.07 49.8619L96.3076 50.0986H96.3867L96.3076 50.0197C96.3076 49.9408 96.2284 49.8619 96.2284 49.6252C96.2284 49.3885 96.2284 49.073 96.3076 48.5996V48.4418C96.7035 48.4418 97.0202 48.3629 97.2578 48.2051C97.4161 48.0473 97.4161 47.7317 97.4161 47.6528C97.4161 47.4162 97.2578 47.1795 97.0994 47.0217L96.7035 46.7061L96.6243 46.6272L96.1492 46.2327C96.2284 46.2327 96.2284 46.2327 96.1492 46.2327Z" fill="white"/>
<path fill-rule="evenodd" clip-rule="evenodd" d="M98.2079 49.3886C97.9703 49.5463 97.812 49.8619 97.812 50.3353V50.572C97.812 50.8876 97.7328 51.0454 97.5744 51.1243C97.416 51.2031 97.1785 51.2031 97.0201 50.9665C96.9409 50.8876 96.8617 50.6509 97.0201 50.4142C97.0201 50.3353 97.0993 50.3353 97.0993 50.2564C97.0993 50.1775 97.0201 50.2564 96.9409 50.2564L96.545 50.4931C96.4658 50.4931 96.4658 50.4931 96.4658 50.572C96.4658 50.6509 96.4658 50.572 96.4658 50.6509C96.4658 50.8087 96.545 50.9665 96.7034 51.1243C96.7826 51.282 96.9409 51.4398 97.1785 51.5187C97.4952 51.5976 97.812 51.5187 97.8911 51.4398C98.1287 51.2031 98.2871 50.9665 98.2871 50.4142V50.2564C98.3662 49.8619 98.3662 49.783 98.4454 49.6252C98.5246 49.6252 98.6038 49.6252 98.683 49.6252C98.7622 49.6252 98.8413 49.7041 98.9205 49.783C99.0789 49.9408 98.9997 50.0986 98.9997 50.1775C98.9997 50.3353 98.9205 50.3353 98.9205 50.3353C98.8413 50.3353 98.9205 50.4142 98.9205 50.4931C98.9205 50.572 98.9997 50.4931 99.0789 50.4931L99.3956 50.3353V50.2564C99.3956 50.0986 99.3165 50.0197 99.1581 49.8619C98.9997 49.3097 98.5246 49.1519 98.2079 49.3886Z" fill="white"/>
<path fill-rule="evenodd" clip-rule="evenodd" d="M100.266 51.4398C100.266 51.4398 100.266 51.4398 100.266 51.5187L100.345 51.5976C100.345 51.5976 100.345 51.6765 100.187 51.7554L99.4744 52.071L98.8409 52.4655C98.5242 52.6233 98.2866 52.7021 98.1283 52.781C98.0491 52.781 97.9699 52.781 97.9699 52.781V52.7021L97.8115 52.6233C97.8115 52.6233 97.8115 52.6233 97.8115 52.7021L97.8907 52.9388L97.9699 53.0966L98.0491 53.2544L98.2074 53.57L98.2866 53.6489H98.3658L98.2866 53.57V53.4122C98.2866 53.3333 98.2866 53.3333 98.3658 53.2544C98.445 53.1755 98.7617 53.0966 99.0785 52.9388L99.6328 52.7021C100.108 52.4655 100.187 52.3866 100.345 52.3866C100.425 52.3866 100.504 52.3866 100.504 52.3866V52.4655C100.583 52.4655 100.583 52.5444 100.662 52.4655V52.3866L100.504 52.1499L100.425 51.9921L100.266 51.5976C100.345 51.5187 100.266 51.4398 100.266 51.4398Z" fill="white"/>
<path fill-rule="evenodd" clip-rule="evenodd" d="M101.295 53.6489C101.295 53.6489 100.979 53.6489 100.9 53.6489C100.9 53.6489 100.82 53.6489 100.82 53.7278H100.9H100.979C101.058 53.7278 101.058 53.8067 101.137 53.9645C101.137 53.9645 101.216 54.359 101.295 54.4379C101.216 54.4379 99.8701 54.8324 99.8701 54.8324C99.5534 54.9113 99.2367 54.9901 99.1575 54.9901C99.0783 54.9901 98.9991 54.9901 98.9991 54.9901L98.9199 54.9113V54.8324C98.9199 54.8324 98.9199 54.8324 98.9199 54.9113L98.9991 55.1479V55.3057L99.0783 55.4635L99.1575 55.858C99.1575 55.9369 99.2367 55.9369 99.2367 55.9369C99.2367 55.9369 99.2367 55.9369 99.2367 55.858V55.7002C99.2367 55.7002 99.2367 55.6213 99.3158 55.6213C99.4742 55.5424 99.7118 55.4635 100.029 55.3846C100.029 55.3846 101.216 55.069 101.454 54.9901C101.454 55.069 101.533 55.3846 101.533 55.3846C101.533 55.4635 101.533 55.5424 101.533 55.6213C101.533 55.7002 101.533 55.7791 101.454 55.7791C101.454 55.7791 101.375 55.7791 101.375 55.858H101.454L101.85 55.7791C101.929 55.7791 101.929 55.7791 101.929 55.7791C101.929 55.7791 101.85 55.7002 101.85 55.5424L101.454 54.2012L101.375 53.8856V53.8067C101.375 53.6489 101.295 53.6489 101.295 53.6489Z" fill="white"/>
<path fill-rule="evenodd" clip-rule="evenodd" d="M102.087 56.8836C102.087 56.8836 102.087 56.9625 102.087 57.0414C102.087 57.1203 102.008 57.1992 101.929 57.2781C101.771 57.4359 100.979 57.9882 100.9 57.9882C100.82 57.9882 100.741 58.0671 100.583 58.0671H100.345L99.9494 58.146C99.8702 58.146 99.791 58.146 99.791 58.0671V57.9882V57.9093C99.791 57.9093 99.791 57.9882 99.791 58.0671V58.3038V58.4615V58.6193V59.0138C99.791 59.0138 99.791 59.0138 99.791 59.0927V59.0138V58.9349C99.791 58.856 99.8702 58.856 99.9494 58.856H100.266H100.504C100.662 58.856 100.741 58.7771 100.9 58.856C100.979 58.856 101.929 59.3294 102.087 59.4083C102.167 59.4872 102.246 59.4872 102.246 59.5661C102.325 59.5661 102.325 59.645 102.325 59.645C102.325 59.7239 102.404 59.7239 102.404 59.7239C102.404 59.7239 102.404 59.7239 102.404 59.645V59.2505V58.9349C102.404 58.9349 102.404 58.856 102.325 58.856C102.246 58.856 102.246 58.9349 102.246 58.9349C102.246 58.9349 102.246 58.9349 102.167 58.9349C102.167 58.9349 102.087 58.9349 102.008 58.9349C101.929 58.9349 101.691 58.856 101.454 58.6982C101.296 58.6193 101.137 58.5404 100.979 58.5404H101.058C101.296 58.3826 101.85 57.9882 101.929 57.9093L102.008 57.8304C102.008 57.9093 102.008 57.9093 102.087 57.9093V57.8304V57.5937V57.5148V57.2781V57.1203V57.0414V56.8836C102.087 56.8047 102.087 56.8047 102.087 56.8836Z" fill="white"/>
<path fill-rule="evenodd" clip-rule="evenodd" d="M64.5547 59.9605C64.5547 70.6903 73.2649 79.4477 84.034 79.4477C94.803 79.4477 103.592 70.6903 103.592 59.9605C103.592 49.2307 94.803 40.5522 84.034 40.5522C73.2649 40.5522 64.5547 49.2307 64.5547 59.9605ZM64.7922 59.9605C64.7922 49.3885 73.4233 40.7889 84.034 40.7889C94.6447 40.7889 103.276 49.3885 103.276 59.9605C103.276 70.5325 94.6447 79.1321 84.034 79.1321C73.4233 79.1321 64.7922 70.5325 64.7922 59.9605Z" fill="white"/>
<path fill-rule="evenodd" clip-rule="evenodd" d="M74.5312 62.1696C74.9272 64.0631 75.719 66.2722 77.3819 68.3235L84.0333 61.6962L90.6848 68.4024C92.3477 66.2722 93.1395 64.0631 93.5355 62.1696C90.4473 61.6174 87.2799 61.3018 83.9542 61.3018C80.7868 61.2229 77.5402 61.5385 74.5312 62.1696Z" fill="#003876"/>
<path fill-rule="evenodd" clip-rule="evenodd" d="M94.0111 50.7298C94.0111 50.7298 88.2306 50.8876 84.0338 47.574C79.8371 50.9665 74.0566 50.7298 74.0566 50.7298C74.0566 50.7298 74.0566 55.3846 74.0566 57.9093C74.0566 58.6193 74.0566 59.9606 74.3734 61.5385C77.4616 60.9073 80.7081 60.5917 84.0338 60.5917C87.3596 60.5917 90.6061 60.9073 93.6943 61.5385C94.0111 59.9606 94.0111 58.6982 94.0111 57.9093C94.0111 55.3846 94.0111 50.7298 94.0111 50.7298Z" fill="#003876"/>
<path fill-rule="evenodd" clip-rule="evenodd" d="M78.9658 70.1381C80.312 71.3215 81.9748 72.5049 84.0336 73.5306C86.0924 72.5049 87.7553 71.4004 89.1014 70.1381L84.0336 65.0887L78.9658 70.1381Z" fill="#003876"/>
<path fill-rule="evenodd" clip-rule="evenodd" d="M77.3818 68.3234C77.7778 68.9546 78.332 69.5069 78.9655 70.138L84.0333 65.0887L89.1011 70.138C89.7346 69.5858 90.2097 68.9546 90.6848 68.4023L84.0333 61.6962L77.3818 68.3234Z" fill="white"/>
<path fill-rule="evenodd" clip-rule="evenodd" d="M74.373 61.5385C74.373 61.6963 74.4522 61.933 74.4522 62.0907C77.5404 61.5385 80.7078 61.2229 84.0335 61.2229C87.2801 61.2229 90.5266 61.5385 93.6148 62.0907C93.6148 61.933 93.694 61.6963 93.694 61.5385C90.6058 60.9073 87.3592 60.5917 84.0335 60.5917C80.7078 60.5917 77.4612 60.9073 74.373 61.5385Z" fill="white"/>
<path fill-rule="evenodd" clip-rule="evenodd" d="M75.7982 56.1735C75.7982 56.1735 75.9566 56.1735 76.1941 56.0946C76.2733 56.0158 76.5109 55.858 76.6692 56.0158V54.6745C76.6692 54.5956 76.5109 54.5956 76.2733 54.6745C76.2733 54.6745 76.0358 54.7534 75.7982 54.8323C75.7982 54.8323 75.719 54.8323 75.719 54.9112V56.0158C75.719 56.0158 75.6398 56.1735 75.7982 56.1735Z" fill="white"/>
<path fill-rule="evenodd" clip-rule="evenodd" d="M77.3032 56.0947C77.5408 56.1736 77.6991 56.1736 77.6991 56.1736C77.7783 56.1736 77.7783 56.0947 77.7783 56.0947V54.9901C77.7783 54.9112 77.6991 54.9112 77.6991 54.9112C77.4616 54.9112 77.224 54.7534 77.224 54.7534C76.9865 54.6746 76.9073 54.6746 76.8281 54.7534V56.0947C76.9865 55.858 77.224 56.0158 77.3032 56.0947Z" fill="white"/>
<path fill-rule="evenodd" clip-rule="evenodd" d="M78.2528 56.4891L78.1736 55.2268C78.1736 55.1479 78.1736 55.1479 78.1736 55.1479C78.1736 55.1479 78.1736 55.069 78.0944 55.069V56.2524C78.0944 56.2524 78.0944 56.4102 78.0153 56.4102C78.0153 56.4102 77.7777 56.4891 77.461 56.3313C77.461 56.3313 77.3026 56.2524 77.2234 56.2524C77.1442 56.2524 76.9859 56.1735 76.9067 56.4102C76.8275 56.1735 76.6691 56.2524 76.5899 56.2524C76.5108 56.2524 76.3524 56.3313 76.3524 56.3313C76.0357 56.4891 75.7981 56.4102 75.7981 56.4102V56.2524V54.9901H75.7189L75.6397 55.069C75.6397 55.069 75.6397 55.069 75.6397 55.1479L75.5605 56.4102C75.5605 56.4102 75.5605 56.4891 75.6397 56.4891L76.6691 56.3313H76.7483C76.7483 56.3313 76.7483 56.4102 76.9067 56.4102C77.065 56.4102 77.065 56.3313 77.065 56.3313C77.065 56.2524 77.2234 56.3313 77.2234 56.3313L78.2528 56.4891C78.2528 56.6469 78.2528 56.4891 78.2528 56.4891Z" fill="white"/>
<path fill-rule="evenodd" clip-rule="evenodd" d="M84.0332 59.9605C81.4993 59.9605 79.3613 57.9093 79.3613 55.3057C79.3613 52.7022 81.4201 50.6509 84.0332 50.6509C86.5671 50.6509 88.7051 52.7022 88.7051 55.3057C88.7051 57.8304 86.5671 59.9605 84.0332 59.9605ZM84.0332 52.86C82.6871 52.86 81.6577 53.8856 81.6577 55.2268C81.6577 56.4891 82.6871 57.5937 84.0332 57.5937C85.3001 57.5937 86.4087 56.568 86.4087 55.2268C86.4087 53.9645 85.3793 52.86 84.0332 52.86Z" fill="white"/>
<path fill-rule="evenodd" clip-rule="evenodd" d="M81.9751 69.1125C81.8959 69.1913 81.5 69.428 81.5 69.428C81.5 69.428 81.5 69.428 81.5 69.5069H81.5792C81.5792 69.5069 81.6584 69.428 81.7376 69.428V69.6647V69.9803V70.3748C81.7376 70.4537 81.7376 70.4537 81.6584 70.4537H81.5C81.5 70.4537 81.5 70.4537 81.5 70.5326C81.5 70.5326 81.5 70.5326 81.5792 70.5326H81.8167H81.8959H81.9751H82.2127C82.2918 70.5326 82.2918 70.5326 82.2918 70.5326C82.2918 70.4537 82.2127 70.4537 82.2127 70.4537H82.0543C82.0543 70.4537 82.0543 70.4537 82.0543 70.3748V69.9803V69.5858V69.1913C82.1335 69.1125 82.0543 69.0336 81.9751 69.1125Z" fill="white"/>
<path fill-rule="evenodd" clip-rule="evenodd" d="M82.9251 70.2958C82.9251 70.138 83.0043 69.9803 83.0835 69.9014C83.2419 69.9803 83.4002 70.0592 83.4002 70.2958C83.4002 70.4536 83.3211 70.5325 83.1627 70.5325C83.0043 70.6114 82.9251 70.4536 82.9251 70.2958ZM82.6876 69.5069C82.6876 69.6647 82.7668 69.7436 82.9251 69.8225C82.7668 69.9014 82.6084 70.0592 82.6084 70.2958C82.6084 70.5325 82.846 70.6903 83.1627 70.6903C83.5586 70.6903 83.717 70.4536 83.717 70.2169C83.717 69.9803 83.5586 69.8225 83.4002 69.7436C83.4794 69.7436 83.6378 69.5858 83.6378 69.3491C83.6378 69.1913 83.4794 69.0335 83.2419 69.0335C82.846 69.0335 82.6876 69.3491 82.6876 69.5069ZM82.9251 69.428C82.9251 69.3491 83.0043 69.1913 83.1627 69.1913C83.2419 69.1913 83.3211 69.2702 83.3211 69.428C83.3211 69.5858 83.2419 69.6647 83.1627 69.6647C83.0043 69.5858 82.9251 69.5069 82.9251 69.428Z" fill="white"/>
<path fill-rule="evenodd" clip-rule="evenodd" d="M84.3499 70.2958C84.3499 70.138 84.5083 69.9803 84.5875 69.9014C84.7459 69.9803 84.9042 70.0592 84.9042 70.2958C84.9042 70.4536 84.825 70.5325 84.6667 70.5325C84.4291 70.6114 84.3499 70.4536 84.3499 70.2958ZM84.1124 69.5069C84.1124 69.6647 84.2708 69.7436 84.3499 69.8225C84.1124 69.9014 84.0332 70.0592 84.0332 70.2958C84.0332 70.5325 84.1916 70.6903 84.5875 70.6903C84.9042 70.6903 85.1418 70.4536 85.1418 70.2169C85.1418 69.9803 84.9042 69.8225 84.825 69.7436C84.9042 69.7436 85.0626 69.5858 85.0626 69.3491C85.0626 69.1913 84.9042 69.0335 84.5875 69.0335C84.2708 69.0335 84.1124 69.3491 84.1124 69.5069ZM84.4291 69.428C84.4291 69.3491 84.5083 69.1913 84.6667 69.1913C84.7459 69.1913 84.825 69.2702 84.825 69.428C84.825 69.5858 84.7459 69.6647 84.6667 69.6647C84.5083 69.5858 84.4291 69.5069 84.4291 69.428Z" fill="white"/>
<path fill-rule="evenodd" clip-rule="evenodd" d="M86.33 69.1124H86.1716H85.6965C85.6174 69.1124 85.6174 69.1124 85.6174 69.1913V69.7436C85.7757 69.7436 86.0925 69.9014 86.0925 70.217C86.0925 70.4536 85.9341 70.5325 85.7757 70.5325C85.6174 70.5325 85.5382 70.4536 85.5382 70.2959C85.5382 70.217 85.5382 70.217 85.459 70.217C85.459 70.217 85.459 70.217 85.459 70.2959V70.5325V70.6114C85.5382 70.6903 85.6174 70.6903 85.6965 70.6903C86.1716 70.6903 86.4092 70.3748 86.4092 70.1381C86.4092 69.8225 86.0925 69.5858 85.6965 69.5069V69.3491H86.0133C86.1716 69.3491 86.1716 69.3491 86.1716 69.428C86.1716 69.5069 86.1716 69.5069 86.1716 69.5069C86.1716 69.5069 86.1716 69.5069 86.1716 69.428L86.33 69.1124C86.4092 69.1124 86.4092 69.1124 86.33 69.1124Z" fill="white"/>
<path fill-rule="evenodd" clip-rule="evenodd" d="M67.167 64.6943C67.167 65.0099 67.4837 65.2465 67.8005 65.2465C68.1172 65.2465 68.3548 65.0099 68.3548 64.6943C68.3548 64.3787 68.1172 64.142 67.8005 64.142C67.4837 64.0631 67.167 64.2998 67.167 64.6943Z" fill="white"/>
<path fill-rule="evenodd" clip-rule="evenodd" d="M100.82 64.6943C100.82 65.0099 100.583 65.2465 100.266 65.2465C99.9495 65.2465 99.7119 65.0099 99.7119 64.6943C99.7119 64.3787 99.9495 64.142 100.266 64.142C100.583 64.0631 100.82 64.2998 100.82 64.6943Z" fill="white"/>
<path fill-rule="evenodd" clip-rule="evenodd" d="M91.8726 55.7791H90.4473C90.4473 55.7791 90.3681 55.7791 90.4473 55.858L90.5265 56.0158C90.5265 56.0158 90.5265 56.0158 90.6057 56.0158H91.7934C91.8726 56.0158 91.8726 56.0158 91.8726 56.0158V55.7791C91.8726 55.7791 91.9518 55.7791 91.8726 55.7791Z" fill="white"/>
<path fill-rule="evenodd" clip-rule="evenodd" d="M91.6358 56.3314H90.7647C90.7647 56.3314 90.6855 56.2525 90.6855 56.3314L90.7647 56.4892C90.7647 56.4892 90.7647 56.5681 90.8439 56.5681H91.5566C91.6358 56.5681 91.6358 56.4892 91.6358 56.4892V56.3314C91.6358 56.3314 91.7149 56.2525 91.6358 56.3314Z" fill="white"/>
<path fill-rule="evenodd" clip-rule="evenodd" d="M91.4772 56.8047C91.5564 56.7258 91.4772 56.7258 91.4772 56.8047L90.9229 56.7258C90.9229 56.7258 90.8437 56.7258 90.9229 56.8047L91.0813 57.1992V57.6726C91.0813 57.6726 91.0813 57.7515 91.1604 57.7515H91.2396C91.3188 57.7515 91.3188 57.6726 91.3188 57.6726V57.1992L91.4772 56.8047Z" fill="white"/>
<path fill-rule="evenodd" clip-rule="evenodd" d="M91.0809 55.6213C91.0809 55.6213 91.556 55.6213 91.7935 55.4635C91.8727 55.3846 91.9519 55.2268 91.9519 55.069C91.8727 54.9112 91.7935 54.7534 91.6352 54.5956C91.6352 54.5956 91.3976 54.3589 91.4768 54.0434C91.4768 54.0434 91.4768 53.9645 91.3976 54.0434C91.3976 54.0434 90.6058 54.5956 90.7641 55.2268C90.7641 55.2268 90.5266 54.9901 90.7641 54.5956C90.7641 54.5956 90.7641 54.5167 90.685 54.5956C90.6058 54.5956 90.289 54.9901 90.6058 55.4635C90.4474 55.3057 90.685 55.5424 91.0809 55.6213Z" fill="white"/>
<path fill-rule="evenodd" clip-rule="evenodd" d="M84.9842 75.3452V76.2131H84.7466V75.3452H84.1923V75.4241C84.1923 75.4241 84.2715 75.503 84.2715 75.6608C84.2715 75.6608 84.2715 76.6864 84.2715 77.5543C83.9548 77.5543 83.0046 77.5543 83.0046 77.5543V75.8975H83.7964V75.503C83.7172 75.503 82.3711 75.503 82.3711 75.503C82.3711 75.503 82.4503 75.5819 82.4503 75.7397V77.9488C82.4503 77.9488 83.8756 77.9488 84.1923 77.9488C84.1923 78.2643 84.1923 78.5799 84.1923 78.5799C84.1923 78.5799 84.5883 78.5799 84.6674 78.5799V76.6075H84.905C84.905 76.6075 84.905 78.501 84.905 78.5799H85.3801V75.3452C85.5385 75.3452 85.0634 75.3452 84.9842 75.3452Z" fill="white"/>
<path fill-rule="evenodd" clip-rule="evenodd" d="M98.7616 70.5325C98.3657 70.217 96.782 68.9546 96.782 68.8757C96.782 68.8757 95.1983 70.7692 95.1191 70.8481L95.4359 71.0848L96.7028 69.5069C96.7028 69.5069 97.9698 70.5325 98.3657 70.8481C98.2073 71.0059 98.1281 71.1637 98.1281 71.1637L97.2571 70.4536C97.2571 70.4536 97.0196 70.7692 96.9404 70.7692L97.8114 71.4793L97.653 71.6371C97.653 71.6371 96.8612 70.927 96.782 70.927C96.782 70.927 96.4653 71.3215 96.3861 71.3215C96.3861 71.3215 96.3861 71.3215 96.4653 71.3215C96.4653 71.3215 96.6236 71.3215 96.7028 71.3215L97.3363 71.8738C97.3363 71.8738 97.0196 72.2682 96.9404 72.2682L97.2571 72.5049L99.1575 70.217C99.1575 70.1381 98.92 69.9803 98.92 69.9803C98.9992 70.2959 98.92 70.4536 98.7616 70.5325Z" fill="white"/>
<path fill-rule="evenodd" clip-rule="evenodd" d="M78.0161 74.2406C78.0161 74.3195 76.6699 77.1597 76.6699 77.1597C76.6699 77.1597 77.0658 77.3175 77.145 77.3964L78.4912 74.4773C78.4912 74.4773 78.0952 74.2406 78.0161 74.2406Z" fill="white"/>
<path fill-rule="evenodd" clip-rule="evenodd" d="M77.303 73.925C77.303 74.0039 77.303 74.0828 77.303 74.2406L77.0654 74.7929C77.0654 74.7929 76.6695 74.5562 76.5903 74.5562C76.5112 74.5562 76.432 74.8718 76.432 74.8718L76.9071 75.1085L76.1152 76.8442L76.5112 77.002L77.8573 74.0828C77.8573 74.1617 77.3822 73.925 77.303 73.925Z" fill="white"/>
<path fill-rule="evenodd" clip-rule="evenodd" d="M75.9565 74.7929C76.2732 74.4773 76.5108 74.1617 76.7483 73.7672L76.1149 73.4517C76.1149 73.4517 76.2732 73.5306 76.1149 73.7672C76.1149 73.7672 75.7189 74.5562 74.6104 74.9507C74.6104 74.9507 74.6895 75.1874 74.6895 75.2663H74.7687C74.7687 75.2663 75.0855 75.2663 75.5606 74.9507C75.6397 75.1085 75.7189 75.2663 75.8773 75.8974L76.2732 75.6607C76.2732 75.5029 76.1149 75.1874 75.9565 74.7929Z" fill="white"/>
<path fill-rule="evenodd" clip-rule="evenodd" d="M90.6847 76.7652C90.7639 76.7652 92.6643 75.8185 92.6643 75.8185C92.6643 75.8185 92.9019 76.3708 92.9019 76.4497C92.9019 76.4497 93.377 76.2919 93.377 76.213C93.377 76.213 92.9811 75.2662 92.9019 75.2662C92.9019 75.2662 90.5264 76.3708 90.5264 76.4497C90.5264 76.3708 90.6847 76.6864 90.6847 76.7652Z" fill="white"/>
<path fill-rule="evenodd" clip-rule="evenodd" d="M92.0309 73.2939C91.9517 73.2939 91.4766 73.5306 91.4766 73.5306C91.4766 73.5306 91.4766 73.5306 91.4766 73.6095C91.4766 73.6095 91.6349 73.6095 91.6349 73.6884L92.2684 75.1085C92.2684 75.1085 92.6643 74.9507 92.7435 74.9507L92.506 74.3985L92.9019 74.2407C92.9019 74.2407 92.8227 73.9251 92.7435 73.9251L92.3476 74.1618C92.3476 74.1618 92.0309 73.3728 92.0309 73.2939Z" fill="white"/>
<path fill-rule="evenodd" clip-rule="evenodd" d="M89.893 75.503C90.0514 75.8975 90.6056 76.0553 91.0808 75.8186C91.4767 75.6608 91.7142 75.1085 91.5559 74.714C91.4767 74.4774 91.3183 74.3985 91.0808 74.3196C91.2391 74.2407 91.3975 74.1618 91.3975 74.1618L91.2391 73.8462L90.6056 74.1618L90.5265 73.9251L89.9722 74.1618H90.0514C90.0514 74.1618 90.1305 74.1618 90.2097 74.2407C90.2097 74.2407 89.5763 74.5562 89.4971 74.5562L89.6554 74.8718C89.6554 74.8718 89.7346 74.8718 89.9722 74.7929C89.7346 75.1085 89.7346 75.3452 89.893 75.503ZM90.9224 75.5819C90.6848 75.6608 90.4473 75.5819 90.2889 75.3452C90.2097 75.1085 90.2889 74.8718 90.5265 74.714C90.6848 74.6351 91.0016 74.714 91.0808 74.9507C91.2391 75.1874 91.1599 75.4241 90.9224 75.5819Z" fill="white"/>
<path fill-rule="evenodd" clip-rule="evenodd" d="M70.256 70.8481L69.86 70.3748V70.4537C69.86 70.4537 69.86 70.6114 69.7809 70.6903L69.2266 71.1637L70.8102 72.9783L71.127 72.7416L69.86 71.3215C69.7809 71.3215 70.256 70.927 70.256 70.8481Z" fill="white"/>
<path fill-rule="evenodd" clip-rule="evenodd" d="M71.285 71.0059C71.4434 71.1637 71.6809 71.4793 71.6809 71.4793C71.6809 71.4793 71.1266 72.0315 71.0474 72.0315C71.0474 72.0315 71.3642 72.3471 71.3642 72.426C71.3642 72.3471 73.1062 70.927 73.1062 70.927L72.7103 70.4536C72.7103 70.5325 72.7103 70.6114 72.6311 70.6114L72.5519 70.7692C72.5519 70.7692 72.156 70.3747 72.0768 70.2169C72.0768 69.9802 71.9976 69.7436 71.8393 69.5069C71.5225 69.1124 70.8891 69.0335 70.5723 69.3491C70.1764 69.6647 70.1764 70.2958 70.5723 70.6903C70.6515 70.8481 70.9683 71.0059 71.285 71.0059ZM72.2352 71.0059L72.0768 71.1637C72.0768 71.1637 71.9185 71.0059 71.7601 70.7692L71.8393 70.6903C71.9185 70.6903 71.9185 70.6114 71.9976 70.5325C71.9976 70.8481 72.2352 71.0059 72.2352 71.0059ZM70.8099 69.6647C71.0474 69.5069 71.3642 69.5069 71.5225 69.6647C71.6809 69.8225 71.6809 70.138 71.4434 70.3747C71.285 70.5325 70.9683 70.5325 70.7307 70.3747C70.5723 70.2169 70.5723 69.9014 70.8099 69.6647Z" fill="white"/>
<path fill-rule="evenodd" clip-rule="evenodd" d="M122.042 48.7574H121.013H119.271C119.191 48.7574 118.875 48.7574 118.875 49.073C118.875 49.2308 119.112 49.3097 119.271 49.3885C119.429 49.3885 119.508 49.5463 119.508 49.7041C119.508 49.9408 119.429 50.2564 119.271 50.572C119.112 50.8087 118.479 51.9921 117.845 53.0966C117.37 54.0434 116.895 54.9112 116.658 55.3846C116.578 55.2268 116.42 54.9901 116.42 54.9901C115.628 53.7278 113.886 50.6509 113.649 50.1775C113.649 50.0986 113.49 49.783 113.49 49.6252C113.49 49.5463 113.49 49.4674 113.569 49.4674H113.649C113.886 49.3885 114.044 49.3885 114.044 49.1519C114.044 49.073 114.044 48.8363 113.649 48.8363H112.302H111.669H110.244H109.373C108.897 48.8363 108.897 48.9941 108.897 49.1519C108.897 49.2308 108.897 49.4674 109.293 49.4674C109.452 49.4674 109.768 49.5463 110.006 49.6252C110.323 49.783 110.798 50.2564 111.194 50.8876C111.827 51.8343 114.282 55.858 114.44 56.1736C114.678 56.7258 114.836 57.0414 114.836 58.067V59.5661V61.3807C114.757 61.7751 114.757 62.1696 114.361 62.2485L113.807 62.3274C113.411 62.3274 113.332 62.5641 113.332 62.643C113.332 62.9586 113.728 62.9586 113.886 62.9586H115.232H116.182H117.053H118.954C119.429 62.9586 119.508 62.8008 119.508 62.643C119.508 62.5641 119.508 62.3274 119.112 62.3274L118.241 62.2485C117.845 62.2485 117.687 62.0118 117.608 61.3807V59.5661V58.067C117.608 57.5148 117.608 56.8836 117.845 56.2525C118.162 55.5424 120.696 51.2031 121.329 50.4931C121.725 50.0197 121.884 49.783 122.28 49.6252C122.517 49.4674 122.834 49.4674 122.992 49.4674C123.467 49.4674 123.467 49.2308 123.467 49.1519C123.467 48.9941 123.309 48.9152 122.992 48.9152H122.042V48.7574Z" fill="black"/>
<path fill-rule="evenodd" clip-rule="evenodd" d="M132.415 48.4418C127.11 48.4418 124.655 52.2288 124.655 55.7791C124.655 59.3294 127.031 63.1164 132.257 63.1164C136.85 63.1164 140.096 59.9606 140.096 55.4635C140.017 51.1243 137.087 48.4418 132.415 48.4418ZM132.97 61.933C129.723 61.933 127.427 59.1716 127.427 55.2268C127.427 50.3353 130.198 49.6253 131.861 49.6253C134.949 49.6253 137.087 52.3077 137.087 56.1736C137.166 61.3807 134.237 61.933 132.97 61.933Z" fill="black"/>
<path fill-rule="evenodd" clip-rule="evenodd" d="M145.164 49.1519L145.006 60.0394C145.006 61.6174 144.926 62.0118 144.531 62.1696L143.739 62.2485C143.422 62.2485 143.343 62.4063 143.343 62.5641C143.343 62.8797 143.739 62.8797 143.897 62.8797H145.56H145.877H146.352H148.094C148.252 62.8797 148.648 62.8797 148.648 62.5641C148.648 62.4063 148.49 62.2485 148.173 62.2485C147.935 62.2485 147.619 62.2485 147.302 62.0907C147.064 62.0118 146.827 61.7751 146.827 60.1972C146.827 60.1972 146.669 53.4122 146.669 52.7811C146.748 52.86 146.827 53.0177 146.827 53.0177C147.619 53.8067 149.202 55.6213 150.786 57.1992L153.241 59.645L156.25 62.643C156.487 62.8008 156.725 63.0375 156.962 63.0375C157.358 63.0375 157.358 62.5641 157.358 62.3274L157.517 50.7298C157.517 49.7041 157.675 49.4675 158.071 49.3097H158.546C158.942 49.3097 159.021 49.1519 159.021 48.9941C159.021 48.6785 158.625 48.6785 158.467 48.6785H157.042H156.725H156.091H154.508C154.27 48.6785 153.874 48.6785 153.874 48.9941C153.874 49.1519 154.033 49.3097 154.27 49.3097C154.508 49.3097 154.904 49.3097 155.141 49.3886C155.458 49.5463 155.616 49.783 155.696 50.8876C155.696 50.8876 155.854 57.4359 155.854 58.856C155.616 58.6193 154.745 57.6726 154.745 57.6726L152.053 54.8323C149.519 52.3077 146.748 49.3886 146.352 48.9152L146.193 48.7574C145.956 48.5207 145.797 48.3629 145.56 48.3629C145.164 48.4418 145.164 48.9941 145.164 49.1519Z" fill="black"/>
<path fill-rule="evenodd" clip-rule="evenodd" d="M163.851 52.071C163.851 53.6489 164.643 54.9902 166.622 56.5681L167.414 57.1992C168.84 58.3038 169.156 59.0927 169.156 59.9606C169.156 60.9073 168.364 61.933 166.86 61.933C166.147 61.933 164.801 61.6963 164.405 60.1973C164.326 59.8817 164.247 59.5661 164.247 59.3294C164.247 58.9349 164.088 58.856 163.93 58.856C163.613 58.856 163.613 59.2505 163.613 59.4872L163.534 61.8541C163.534 62.2485 163.613 62.4063 163.93 62.643C164.722 62.9586 165.514 63.1164 166.702 63.1164C167.889 63.1164 168.919 62.8797 169.711 62.3274C171.215 61.3018 171.453 59.8028 171.453 59.0138C171.453 57.1992 170.661 55.9369 168.364 54.2012L167.889 53.8067C166.306 52.6233 165.989 51.9921 165.989 51.2821C165.989 50.2564 166.781 49.5464 168.048 49.5464C169.156 49.5464 169.631 50.0197 169.948 50.4142C170.265 50.8087 170.344 51.361 170.344 51.5188C170.344 51.9132 170.502 51.9921 170.661 51.9921C170.977 51.9921 170.977 51.5977 170.977 51.2821V49.3886V49.073C170.977 48.8363 170.74 48.7574 170.661 48.7574C170.106 48.5996 169.315 48.4418 168.206 48.4418C165.593 48.4418 163.851 49.9408 163.851 52.071Z" fill="black"/>
<path fill-rule="evenodd" clip-rule="evenodd" d="M184.201 48.5996L183.33 48.6785C183.014 48.6785 180.005 48.6785 178.738 48.6785H177.788H176.045C175.887 48.6785 175.491 48.6785 175.491 48.9941C175.491 49.1519 175.65 49.3097 175.966 49.3097H176.6C177.075 49.3886 177.233 49.5464 177.312 50.1775C177.312 50.7298 177.312 51.2821 177.312 54.0434V57.2781C177.312 58.9349 177.312 60.4339 177.233 61.144C177.154 61.6963 177.075 61.9329 176.837 62.0118L176.204 62.0907C175.808 62.0907 175.729 62.2485 175.729 62.4063C175.729 62.5641 175.808 62.7219 176.204 62.7219H177.708H178.5H179.926L183.647 62.8008C184.281 62.8008 184.597 62.8008 184.756 62.2485C184.835 61.854 184.993 60.5917 184.993 60.1972C184.993 60.0395 184.993 59.7239 184.677 59.7239C184.439 59.7239 184.36 59.9606 184.36 60.1183C184.281 60.8284 184.043 61.144 183.647 61.3807C183.172 61.5385 182.459 61.5385 181.984 61.5385C180.163 61.5385 180.005 61.3018 179.926 60.1183V58.146V57.4359V56.0158C180.48 56.0158 182.143 56.0158 182.459 56.0947C183.093 56.1736 183.251 56.4103 183.33 56.6469L183.41 57.1203V57.2781C183.41 57.4359 183.568 57.5937 183.726 57.5937C184.043 57.5937 184.043 57.2781 184.043 57.1203V55.9369L184.201 54.8324V54.6746C184.201 54.5168 184.122 54.359 183.964 54.359C183.806 54.359 183.726 54.4379 183.568 54.5957C183.41 54.7535 183.172 54.8324 182.776 54.8324C182.539 54.8324 181.43 54.8324 179.846 54.8324V50.1775C180.321 50.1775 182.143 50.1775 182.38 50.2564C183.251 50.3353 183.41 50.4931 183.489 50.8087C183.568 50.9665 183.568 51.2821 183.568 51.4398C183.568 51.7554 183.726 51.8343 183.885 51.8343C183.964 51.8343 184.122 51.8343 184.201 51.5187V50.6509V50.3353L184.281 49.3097V49.1519C184.281 48.8363 184.122 48.8363 184.043 48.8363L184.201 48.5996Z" fill="black"/>
<path fill-rule="evenodd" clip-rule="evenodd" d="M193.15 48.7574H192.279H189.903C189.745 48.7574 189.349 48.7574 189.349 48.9941C189.349 49.2308 189.507 49.3097 189.824 49.3097H190.378C190.616 49.3885 190.853 49.5463 190.853 50.1775C190.853 50.7298 190.853 51.282 190.853 54.0434V57.2781C190.853 59.0927 190.853 60.5128 190.774 61.2229C190.774 61.7751 190.616 61.9329 190.378 62.0118L189.745 62.0907C189.349 62.0907 189.27 62.2485 189.27 62.4063C189.27 62.5641 189.428 62.7219 189.745 62.7219H191.17H192.041H192.912H194.892C195.367 62.7219 195.367 62.4852 195.367 62.4063C195.367 62.3274 195.367 62.0907 194.971 62.0907L194.021 62.0118C193.625 62.0118 193.466 61.7751 193.466 61.3018C193.387 60.5128 193.387 59.0927 193.387 57.2781V54.2012C193.387 51.4398 193.387 50.8876 193.387 50.3353C193.466 49.7041 193.545 49.5463 193.941 49.4674H194.417C194.733 49.4674 194.892 49.3885 194.892 49.1519C194.892 48.9152 194.496 48.9152 194.337 48.9152H193.15V48.7574Z" fill="black"/>
<path fill-rule="evenodd" clip-rule="evenodd" d="M118.954 66.7455H118.716H117.687C117.608 66.7455 117.449 66.7455 117.449 66.9033C117.449 66.9822 117.529 67.0611 117.687 67.0611H118.004C118.241 67.14 118.32 67.2189 118.32 67.5345V69.5069V70.6114C118.32 71.5582 118.241 72.3471 117.845 72.8205C117.449 73.215 116.895 73.2939 116.658 73.2939C116.341 73.2939 115.945 73.2939 115.549 72.9783C115.232 72.6627 114.836 72.1893 114.836 70.7692V69.5069V67.5345C114.836 67.2189 114.915 67.14 115.074 67.0611H115.311C115.47 67.0611 115.549 66.9822 115.549 66.9033C115.549 66.7455 115.391 66.7455 115.311 66.7455H114.203H112.857C112.778 66.7455 112.619 66.7455 112.619 66.9033C112.619 66.9822 112.698 67.0611 112.857 67.0611H113.173C113.411 67.14 113.49 67.2189 113.49 67.5345V69.5069V70.8481C113.49 72.0315 113.728 72.8205 114.361 73.3728C115.074 74.0039 116.024 74.0039 116.42 74.0039C116.974 74.0039 117.687 73.925 118.4 73.3728C119.191 72.7416 119.271 71.6371 119.271 70.5325V69.5858V67.6134C119.271 67.2978 119.35 67.2189 119.508 67.14H119.746C119.825 67.14 119.983 67.14 119.983 66.9822C119.983 66.8244 119.825 66.8244 119.746 66.8244H118.954V66.7455Z" fill="black"/>
<path fill-rule="evenodd" clip-rule="evenodd" d="M123.784 66.9823L123.705 72.426C123.705 73.215 123.705 73.3728 123.467 73.4517H123.072C122.913 73.4517 122.834 73.5306 122.834 73.6095C122.834 73.7673 122.992 73.7673 123.151 73.7673H123.943H124.101H124.338H125.21C125.289 73.7673 125.447 73.7673 125.447 73.6095C125.447 73.5306 125.368 73.4517 125.21 73.4517L124.814 73.3728C124.734 73.3728 124.576 73.215 124.576 72.426C124.576 72.426 124.497 69.0335 124.497 68.718C124.576 68.718 124.576 68.7968 124.576 68.7968L126.556 70.927L127.743 72.1105L129.248 73.6095C129.327 73.6884 129.485 73.8462 129.565 73.8462C129.723 73.8462 129.723 73.6095 129.723 73.5306L129.802 67.6923C129.802 67.14 129.881 67.0611 130.04 66.9823H130.277C130.436 66.9823 130.515 66.9034 130.515 66.8245C130.515 66.6667 130.356 66.6667 130.198 66.6667H129.485H129.327H129.01H128.219C128.139 66.6667 127.902 66.6667 127.902 66.8245C127.902 66.9034 127.981 66.9823 128.139 66.9823H128.535C128.694 67.0611 128.773 67.14 128.773 67.6923C128.773 67.6923 128.852 71.0059 128.852 71.716C128.773 71.6371 124.022 66.7456 124.022 66.7456L124.259 66.8245L123.943 66.6667C123.784 66.5878 123.784 66.9034 123.784 66.9823Z" fill="black"/>
<path fill-rule="evenodd" clip-rule="evenodd" d="M136.137 66.7456H135.662H134.474C134.395 66.7456 134.157 66.7456 134.157 66.9034C134.157 66.9823 134.236 67.0612 134.395 67.0612H134.712C134.791 67.0612 134.949 67.1401 134.949 67.4556V69.428V71.0059C134.949 71.8738 134.949 72.5838 134.87 72.9783C134.87 73.215 134.791 73.2939 134.712 73.3728H134.395C134.236 73.3728 134.157 73.4517 134.157 73.5306C134.157 73.6095 134.236 73.6884 134.395 73.6884H135.583H135.978H137.008C137.245 73.6884 137.245 73.6095 137.245 73.5306C137.245 73.4517 137.245 73.3728 137.008 73.3728H136.533C136.374 73.3728 136.295 73.215 136.295 72.9783V71.0059V69.428V67.4556C136.295 67.1401 136.374 67.0612 136.533 66.9823H136.849C137.008 66.9823 137.087 66.9034 137.087 66.8245C137.087 66.6667 136.849 66.6667 136.849 66.6667H136.137V66.7456Z" fill="black"/>
<path fill-rule="evenodd" clip-rule="evenodd" d="M146.431 66.7455H146.114H145.956H145.164C145.006 66.7455 144.847 66.7455 144.847 66.9033C144.847 67.0611 145.006 67.0611 145.085 67.0611H145.402V67.14L145.323 67.4556L144.214 70.2169C144.214 70.2169 143.66 71.6371 143.58 71.8737C143.501 71.6371 142.076 67.8501 142.076 67.8501C141.918 67.4556 141.918 67.2189 141.918 67.14C141.918 67.14 141.918 67.0611 141.997 67.0611H142.314C142.472 67.0611 142.472 66.9822 142.472 66.9033C142.472 66.8244 142.472 66.7455 142.234 66.7455H141.522H141.126H139.78C139.7 66.7455 139.463 66.7455 139.463 66.9033C139.463 66.9033 139.463 67.0611 139.621 67.0611H139.938C140.255 67.14 140.413 67.2189 140.571 67.6923L142.868 73.3728C143.026 73.7672 143.105 73.925 143.264 73.925C143.422 73.925 143.501 73.8461 143.66 73.3728V73.2939L144.847 70.4536L145.402 69.3491L145.956 68.0079C146.194 67.4556 146.273 67.2978 146.431 67.2189C146.589 67.14 146.748 67.14 146.827 67.14C146.985 67.14 147.065 67.0611 147.065 66.9822C147.065 66.8244 146.906 66.8244 146.827 66.8244H146.431V66.7455Z" fill="black"/>
<path fill-rule="evenodd" clip-rule="evenodd" d="M153.795 66.6667C153.795 66.7456 153.399 66.7456 153.399 66.7456H151.102H149.756C149.677 66.7456 149.519 66.7456 149.519 66.9034C149.519 66.9823 149.598 67.0612 149.756 67.0612H150.073C150.31 67.1401 150.39 67.219 150.39 67.5345V69.5069V71.0848V73.0572C150.39 73.2939 150.31 73.4517 150.152 73.4517H149.835C149.677 73.4517 149.677 73.5306 149.677 73.6095C149.677 73.6884 149.677 73.7673 149.914 73.7673H151.102H151.736H153.636C153.953 73.7673 154.111 73.7673 154.19 73.4517C154.27 73.2939 154.27 72.6627 154.27 72.4261C154.27 72.2683 154.27 72.1894 154.19 72.1894C154.032 72.1894 154.032 72.3472 154.032 72.4261C154.032 72.7416 153.874 72.8994 153.715 73.0572C153.478 73.1361 153.082 73.1361 152.844 73.1361C151.973 73.1361 151.894 73.0572 151.815 72.4261V71.5582V71.1637V70.4537L153.082 70.5326C153.399 70.5326 153.478 70.6904 153.478 70.7693C153.478 70.8481 153.478 71.0059 153.478 71.0059V71.0848C153.478 71.1637 153.557 71.1637 153.636 71.1637C153.794 71.1637 153.795 71.0059 153.795 70.927V70.3748C153.795 70.2959 153.874 69.8225 153.874 69.8225V69.7436C153.874 69.6647 153.874 69.5858 153.715 69.5858L153.557 69.7436C153.478 69.8225 153.319 69.8225 153.161 69.8225H151.736V67.4556H153.003C153.399 67.4556 153.478 67.6134 153.557 67.6923V68.0079C153.557 68.1657 153.636 68.1657 153.715 68.1657C153.795 68.1657 153.874 68.1657 153.874 68.0079V67.6134V67.4556V66.9823V66.9034C153.874 66.7456 153.795 66.7456 153.715 66.7456H153.795V66.6667Z" fill="black"/>
<path fill-rule="evenodd" clip-rule="evenodd" d="M164.801 73.5305H164.564C164.405 73.5305 164.089 73.4516 163.614 72.9783L161.951 71.0059C161.951 71.0059 161.792 70.7692 161.713 70.6903C162.505 69.9802 162.901 69.3491 162.901 68.639C162.901 67.929 162.505 67.4556 162.267 67.2978C161.792 66.9822 161.159 66.9033 160.525 66.9033H159.813H159.179H158.862H157.991C157.912 66.9033 157.754 66.9033 157.754 67.0611C157.754 67.14 157.833 67.2189 157.991 67.2189H158.308C158.546 67.2978 158.625 67.3767 158.625 67.6923V69.6647V71.2426L158.546 73.215C158.546 73.4516 158.467 73.6094 158.387 73.6094H158.071C157.912 73.6094 157.833 73.6883 157.833 73.7672C157.833 73.8461 157.912 73.925 158.071 73.925H159.179H159.417H160.446C160.684 73.925 160.684 73.8461 160.684 73.7672C160.684 73.6883 160.684 73.6094 160.525 73.6094H160.129C159.892 73.6094 159.892 73.4516 159.813 73.215V71.2426V71.1637C159.892 71.1637 160.605 71.1637 160.605 71.1637C160.684 71.1637 160.684 71.1637 160.684 71.1637L161.08 71.7159L161.555 72.3471C162.109 73.0572 162.426 73.5305 162.822 73.6883C163.059 73.8461 163.297 73.8461 163.851 73.8461H164.722C164.722 73.8461 164.96 73.8461 164.96 73.6883C165.039 73.6094 164.96 73.5305 164.801 73.5305ZM161.08 70.2958C160.921 70.3747 160.842 70.4536 160.446 70.4536L159.813 70.3747C159.813 70.2958 159.813 70.2958 159.813 70.2169V67.4556C159.813 67.4556 159.813 67.4556 159.813 67.3767H160.288C160.763 67.3767 161.634 67.6923 161.634 68.9546C161.634 69.8225 161.317 70.138 161.08 70.2958Z" fill="black"/>
<path fill-rule="evenodd" clip-rule="evenodd" d="M167.098 68.4813C167.098 69.2702 167.494 69.9014 168.523 70.6904L168.919 71.0059C169.632 71.5582 169.79 71.9527 169.79 72.4261C169.79 72.8994 169.394 73.3728 168.602 73.3728C168.286 73.3728 167.573 73.2939 167.415 72.505L167.335 72.0316C167.335 71.8738 167.256 71.8738 167.177 71.8738C167.019 71.8738 167.019 72.0316 167.019 72.1105L166.939 73.2939C166.939 73.5306 166.939 73.6095 167.177 73.6884C167.573 73.8462 167.969 73.9251 168.523 73.9251C169.077 73.9251 169.632 73.8462 170.028 73.5306C170.819 73.0572 170.899 72.2683 170.899 71.8738C170.899 71.0059 170.503 70.3748 169.394 69.5069L169.157 69.3491C168.365 68.718 168.206 68.4813 168.206 68.0868C168.206 67.6134 168.602 67.219 169.236 67.219C169.79 67.219 170.028 67.4556 170.186 67.6134C170.344 67.8501 170.424 68.0868 170.424 68.1657C170.424 68.3235 170.503 68.4024 170.582 68.4024C170.74 68.4024 170.74 68.1657 170.74 68.0868V67.1401V66.9823C170.74 66.9034 170.582 66.8245 170.582 66.8245C170.344 66.8245 169.948 66.6667 169.315 66.6667C168.048 66.5878 167.098 67.3767 167.098 68.4813Z" fill="black"/>
<path fill-rule="evenodd" clip-rule="evenodd" d="M176.442 66.7456H175.966H174.779C174.699 66.7456 174.462 66.7456 174.462 66.9034C174.462 66.9823 174.541 67.0612 174.699 67.0612H175.016C175.175 67.0612 175.254 67.1401 175.254 67.4556V69.428V71.0059C175.254 71.8738 175.254 72.5838 175.254 72.9783C175.254 73.215 175.175 73.2939 175.016 73.3728H174.699C174.541 73.3728 174.541 73.4517 174.541 73.5306C174.541 73.6095 174.541 73.6884 174.779 73.6884H175.966H176.362H177.392C177.55 73.6884 177.629 73.6095 177.629 73.5306C177.629 73.4517 177.629 73.3728 177.392 73.3728H176.996C176.758 73.3728 176.679 73.215 176.679 72.9783V71.0059V69.428V67.4556C176.679 67.1401 176.758 67.0612 176.917 66.9823H177.154C177.313 66.9823 177.392 66.9034 177.392 66.8245C177.392 66.6667 177.233 66.6667 177.154 66.6667H176.442V66.7456Z" fill="black"/>
<path fill-rule="evenodd" clip-rule="evenodd" d="M180.559 66.8245C180.559 66.9034 180.4 67.7712 180.4 67.929C180.4 67.929 180.4 68.1657 180.559 68.1657C180.717 68.1657 180.717 68.0079 180.717 68.0079L180.876 67.7712C180.955 67.6134 181.113 67.5345 181.667 67.5345C181.667 67.5345 182.697 67.5345 182.934 67.5345C182.934 67.6923 182.934 71.2426 182.934 71.2426V73.215C182.934 73.4517 182.855 73.6095 182.697 73.6095H182.38C182.222 73.6095 182.222 73.6884 182.222 73.7673C182.222 73.8462 182.222 73.9251 182.459 73.9251H183.647H184.043H185.072C185.31 73.9251 185.31 73.8462 185.31 73.7673C185.31 73.6884 185.31 73.6095 185.072 73.6095H184.676C184.439 73.6095 184.439 73.4517 184.36 73.215V71.2426C184.36 71.2426 184.36 67.6923 184.36 67.5345C184.439 67.5345 185.468 67.5345 185.468 67.5345C186.022 67.5345 186.418 67.6923 186.418 68.0079V68.0868C186.418 68.1657 186.418 68.3235 186.577 68.3235C186.735 68.3235 186.735 68.1657 186.735 68.0868V67.0612C186.735 66.9823 186.735 66.8245 186.577 66.8245L186.498 66.9034H185.706H182.063H181.113L180.876 66.8245H180.796C180.638 66.5878 180.559 66.7456 180.559 66.8245Z" fill="black"/>
<path fill-rule="evenodd" clip-rule="evenodd" d="M195.287 66.7455H194.812H193.862C193.783 66.7455 193.624 66.7455 193.624 66.9033C193.624 66.9822 193.783 66.9822 193.862 67.0611C193.941 67.0611 193.941 67.14 193.941 67.2189L193.862 67.6134C193.862 67.6134 192.674 69.8225 192.595 70.0592C192.516 69.9803 192.436 69.8225 192.436 69.8225C192.04 69.1124 191.169 67.6134 191.09 67.4556L191.011 67.2189C191.011 67.2189 191.011 67.14 191.09 67.14C191.249 67.14 191.328 67.0611 191.328 66.9822C191.328 66.9822 191.328 66.8244 191.169 66.8244H190.536H190.219H189.031C188.794 66.8244 188.794 66.9033 188.794 66.9822C188.794 66.9822 188.794 67.14 188.952 67.14L189.269 67.2189C189.427 67.2978 189.665 67.5345 189.903 67.8501C190.219 68.3235 191.407 70.3747 191.486 70.4536C191.565 70.6903 191.645 70.927 191.645 71.4004V72.1893V73.0572C191.645 73.215 191.565 73.4517 191.486 73.4517H191.169C191.011 73.4517 190.932 73.5306 190.932 73.6094C190.932 73.7672 191.09 73.7672 191.169 73.7672H192.357H192.753H193.703C193.941 73.7672 193.941 73.6883 193.941 73.6094C193.941 73.5306 193.941 73.4517 193.783 73.4517H193.307C193.149 73.4517 193.07 73.2939 192.991 73.0572V72.1893V71.4004C192.991 71.1637 192.991 70.8481 193.07 70.5325C193.228 70.138 194.495 68.0079 194.812 67.6134C195.049 67.3767 195.129 67.2978 195.287 67.2189L195.683 67.14C195.921 67.14 195.921 67.0611 195.921 66.9822C195.921 66.9033 195.841 66.8244 195.683 66.8244H195.287V66.7455Z" fill="black"/>
</svg>
