<svg width="332" height="318" viewBox="0 0 332 318" fill="none" xmlns="http://www.w3.org/2000/svg">
<path d="M230.017 269.061C219.408 258.451 219.408 241.051 230.017 230.442C240.627 219.832 258.027 219.832 268.637 230.442C279.246 241.051 279.246 258.451 268.637 269.061C258.027 279.67 240.627 279.67 230.017 269.061Z" fill="#FAFAFA"/>
<path d="M91.6676 130.711C81.0579 120.101 81.0579 102.701 91.6676 92.0917C102.277 81.4821 119.677 81.4821 130.287 92.0917C140.896 102.701 140.896 120.101 130.287 130.711C119.889 141.533 102.489 141.533 91.6676 130.711Z" fill="#FAFAFA"/>
<path d="M218.559 218.559L177.394 227.896C172.089 228.957 166.996 231.503 162.965 235.535C152.143 246.356 152.355 263.544 162.965 274.154C173.787 284.976 190.974 284.763 201.584 274.154C205.616 270.122 208.162 265.029 209.223 259.725L218.559 218.559Z" fill="#FAFAFA"/>
<path d="M218.559 218.559L259.725 209.223C265.03 208.162 270.122 205.615 274.154 201.584C284.764 190.974 284.764 173.574 274.154 162.964C263.544 152.355 246.144 152.355 235.535 162.964C231.291 167.208 228.957 172.089 227.896 177.394L218.559 218.559Z" fill="#FAFAFA"/>
<path d="M144.504 144.503L103.338 153.84C98.0332 154.901 92.9406 157.447 88.9089 161.479C78.0871 172.301 78.2993 189.488 88.9089 200.098C99.7308 210.92 116.918 210.708 127.528 200.098C131.56 196.066 134.106 190.974 135.167 185.669L144.504 144.503Z" fill="#FAFAFA"/>
<path d="M144.504 144.503L185.669 135.167C190.974 134.106 196.067 131.56 200.098 127.528C210.708 116.918 210.708 99.5184 200.098 88.9087C189.489 78.299 172.089 78.299 161.479 88.9087C157.235 93.1526 154.901 98.033 153.84 103.338L144.504 144.503Z" fill="#FAFAFA"/>
<path d="M145.352 217.922L104.187 227.259C98.8819 228.32 93.7893 230.866 89.7576 234.898C78.9358 245.72 79.148 262.907 89.7576 273.517C100.579 284.339 117.767 284.127 128.377 273.517C132.408 269.485 134.955 264.393 136.016 259.088L145.352 217.922Z" fill="#FAFAFA"/>
<path d="M145.352 217.922L186.518 208.586C191.823 207.525 196.915 204.978 200.947 200.947C211.557 190.337 211.557 172.937 200.947 162.328C190.337 151.718 172.937 151.718 162.328 162.328C158.084 166.571 155.538 171.664 154.689 176.757L145.352 217.922Z" fill="#FAFAFA"/>
<path d="M217.922 145.352L259.088 136.016C264.393 134.955 269.485 132.408 273.517 128.377C284.127 117.767 284.127 100.367 273.517 89.7576C262.907 79.1479 245.508 79.1479 234.898 89.7576C230.654 94.0014 228.32 98.8819 227.259 104.187L217.922 145.352Z" fill="#FAFAFA"/>
<path d="M217.922 145.352L176.757 154.689C171.452 155.75 166.359 158.296 162.328 162.328C151.718 172.937 151.718 190.337 162.328 200.947C172.937 211.557 190.337 211.557 200.947 200.947C204.979 196.915 207.525 191.823 208.586 186.518L217.922 145.352Z" fill="#FAFAFA"/>
</svg>
