<svg width="260" height="251" viewBox="0 0 260 251" fill="none" xmlns="http://www.w3.org/2000/svg">
<path d="M102.33 222.964C102.33 207.96 114.633 195.656 129.637 195.656C144.642 195.656 156.945 207.96 156.945 222.964C156.945 237.968 144.642 250.272 129.637 250.272C114.633 250.272 102.33 237.968 102.33 222.964Z" fill="#5394FF"/>
<path d="M102.33 27.3079C102.33 12.3035 114.633 0 129.637 0C144.642 0 156.945 12.3035 156.945 27.3079C156.945 42.3122 144.642 54.6157 129.637 54.6157C114.633 54.9158 102.33 42.6123 102.33 27.3079Z" fill="#5394FF"/>
<path d="M129.938 179.152L94.2273 156.645C89.726 153.645 84.3244 151.844 78.6228 151.844C63.3184 151.844 51.3149 164.148 51.3149 179.152C51.3149 194.456 63.6184 206.46 78.6228 206.46C84.3244 206.46 89.726 204.659 94.2273 201.658L129.938 179.152Z" fill="#5394FF"/>
<path d="M129.938 179.152L165.648 201.658C170.149 204.659 175.551 206.46 181.252 206.46C196.257 206.46 208.56 194.156 208.56 179.152C208.56 164.148 196.257 151.844 181.252 151.844C175.251 151.844 170.149 153.645 165.648 156.645L129.938 179.152Z" fill="#5394FF"/>
<path d="M129.938 74.4213L94.2273 51.9148C89.726 48.9139 84.3244 47.1134 78.6228 47.1134C63.3184 47.1134 51.3149 59.4169 51.3149 74.4213C51.3149 89.7257 63.6184 101.729 78.6228 101.729C84.3244 101.729 89.726 99.9286 94.2273 96.9278L129.938 74.4213Z" fill="#5394FF"/>
<path d="M129.938 74.4213L165.648 96.9278C170.149 99.9286 175.551 101.729 181.252 101.729C196.257 101.729 208.56 89.4256 208.56 74.4213C208.56 59.4169 196.257 47.1134 181.252 47.1134C175.251 47.1134 170.149 48.9139 165.648 51.9148L129.938 74.4213Z" fill="#5394FF"/>
<path d="M78.6227 126.936L42.9124 104.43C38.4111 101.429 33.0095 99.6286 27.3079 99.6286C12.0035 99.6286 0 111.932 0 126.936C0 142.241 12.3035 154.244 27.3079 154.244C33.0095 154.244 38.4111 152.444 42.9124 149.443L78.6227 126.936Z" fill="#5394FF"/>
<path d="M78.6227 126.936L114.333 149.443C118.834 152.444 124.236 154.244 129.938 154.244C144.942 154.244 157.245 141.941 157.245 126.936C157.245 111.932 144.942 99.6286 129.938 99.6286C123.936 99.6286 118.534 101.429 114.333 104.43L78.6227 126.936Z" fill="#5394FF"/>
<path d="M181.252 126.936L216.963 149.443C221.464 152.444 226.865 154.244 232.567 154.244C247.571 154.244 259.875 141.941 259.875 126.936C259.875 111.932 247.571 99.6286 232.567 99.6286C226.565 99.6286 221.464 101.429 216.963 104.43L181.252 126.936Z" fill="#5394FF"/>
<path d="M181.252 126.936L145.542 104.43C141.041 101.429 135.639 99.6286 129.938 99.6286C114.933 99.6286 102.63 111.932 102.63 126.936C102.63 141.941 114.933 154.244 129.938 154.244C135.639 154.244 141.041 152.444 145.542 149.443L181.252 126.936Z" fill="#5394FF"/>
</svg>
