<svg width="251" height="261" viewBox="0 0 251 261" fill="none" xmlns="http://www.w3.org/2000/svg">
<path d="M223.192 157.972C208.188 157.972 195.884 145.669 195.884 130.664C195.884 115.66 208.188 103.356 223.192 103.356C238.197 103.356 250.5 115.66 250.5 130.664C250.5 145.669 238.197 157.972 223.192 157.972Z" fill="#1D191A"/>
<path d="M27.5361 157.972C12.5318 157.972 0.228271 145.669 0.22827 130.664C0.22827 115.66 12.5318 103.356 27.5361 103.356C42.5405 103.356 54.844 115.66 54.844 130.664C55.1441 145.669 42.8406 157.972 27.5361 157.972Z" fill="#1D191A"/>
<path d="M179.38 130.364L156.874 166.074C153.873 170.576 152.072 175.977 152.072 181.679C152.072 196.983 164.376 208.987 179.38 208.987C194.685 208.987 206.688 196.683 206.688 181.679C206.688 175.977 204.888 170.576 201.887 166.074L179.38 130.364Z" fill="#1D191A"/>
<path d="M179.38 130.364L201.887 94.6538C204.888 90.1525 206.688 84.751 206.688 79.0493C206.688 64.045 194.385 51.7415 179.38 51.7415C164.376 51.7415 152.072 64.045 152.072 79.0493C152.072 85.0511 153.873 90.1525 156.874 94.6538L179.38 130.364Z" fill="#1D191A"/>
<path d="M74.6495 130.364L52.1431 166.074C49.1422 170.576 47.3417 175.977 47.3417 181.679C47.3417 196.983 59.6452 208.987 74.6495 208.987C89.954 208.987 101.957 196.683 101.957 181.679C101.957 175.977 100.157 170.576 97.156 166.074L74.6495 130.364Z" fill="#1D191A"/>
<path d="M74.6495 130.364L97.156 94.6538C100.157 90.1525 101.957 84.751 101.957 79.0493C101.957 64.045 89.6539 51.7415 74.6495 51.7415C59.6452 51.7415 47.3417 64.045 47.3417 79.0493C47.3417 85.0511 49.1422 90.1525 52.1431 94.6538L74.6495 130.364Z" fill="#1D191A"/>
<path d="M127.165 181.679L104.658 217.389C101.657 221.891 99.8569 227.292 99.8569 232.994C99.8569 248.298 112.16 260.302 127.165 260.302C142.469 260.302 154.473 247.998 154.473 232.994C154.473 227.292 152.672 221.891 149.671 217.389L127.165 181.679Z" fill="#1D191A"/>
<path d="M127.165 181.679L149.671 145.969C152.672 141.467 154.473 136.066 154.473 130.364C154.473 115.36 142.169 103.056 127.165 103.056C112.16 103.056 99.8569 115.36 99.8569 130.364C99.8569 136.366 101.657 141.768 104.658 145.969L127.165 181.679Z" fill="#1D191A"/>
<path d="M127.165 79.0494L149.671 43.3391C152.672 38.8378 154.473 33.4362 154.473 27.7346C154.473 12.7303 142.169 0.426718 127.165 0.426718C112.16 0.426719 99.8569 12.7303 99.8569 27.7346C99.8569 33.7363 101.657 38.8378 104.658 43.3391L127.165 79.0494Z" fill="#1D191A"/>
<path d="M127.165 79.0495L104.658 114.76C101.657 119.261 99.8569 124.663 99.8569 130.364C99.8569 145.369 112.16 157.672 127.165 157.672C142.169 157.672 154.473 145.369 154.473 130.364C154.473 124.663 152.672 119.261 149.671 114.76L127.165 79.0495Z" fill="#1D191A"/>
</svg>
